<svg width="100" height="100" viewBox="0 0 100 100" fill="none" xmlns="http://www.w3.org/2000/svg">
<path d="M56.9783 42.9069C55.2123 41.1409 54.3294 38.9719 54.3294 36.3998C54.3294 33.8277 55.2123 31.6586 56.9783 29.8927C58.7442 28.1268 60.9325 27.2438 63.543 27.2438C66.1535 27.2438 68.3417 28.1268 70.1077 29.8927C71.8736 31.6586 72.7566 33.8277 72.7566 36.3998C72.7566 38.9719 71.8736 41.1409 70.1077 42.9069C68.3417 44.6728 66.1535 45.5558 63.543 45.5558C60.9325 45.5558 58.7442 44.6728 56.9783 42.9069Z" fill="#FF99DD"/>
<path fill-rule="evenodd" clip-rule="evenodd" d="M56.9783 42.9069C55.2123 41.1409 54.3294 38.9719 54.3294 36.3998C54.3294 33.8277 55.2123 31.6586 56.9783 29.8927C58.7442 28.1268 60.9325 27.2438 63.543 27.2438C66.1535 27.2438 68.3417 28.1268 70.1077 29.8927C71.8736 31.6586 72.7566 33.8277 72.7566 36.3998C72.7566 38.9719 71.8736 41.1409 70.1077 42.9069C68.3417 44.6728 66.1535 45.5558 63.543 45.5558C60.9325 45.5558 58.7442 44.6728 56.9783 42.9069ZM93.0491 4.37306C94.3428 4.52527 95.36 5.54254 95.5126 6.83619C96.5188 15.3673 95.5174 23.6863 92.5083 31.793C89.4011 40.164 84.1534 48.1694 76.765 55.8095C76.0663 56.532 75.7555 57.5497 75.9545 58.535L77.9393 68.3593C78.2464 69.8949 78.1696 71.3921 77.7089 72.8509C77.2482 74.3097 76.4804 75.5766 75.4055 76.6515L59.1964 92.8605C57.694 94.363 55.1489 93.8704 54.3155 91.9159L46.6104 73.8457C46.4599 73.4929 46.2433 73.1722 45.9721 72.9011L27.0991 54.0282C26.8279 53.757 26.5072 53.5403 26.1544 53.3899L8.07102 45.6792C6.12004 44.8474 5.62482 42.3088 7.12007 40.8046L23.2334 24.5949C24.3083 23.52 25.5944 22.7522 27.0916 22.2915C28.5888 21.8308 30.1052 21.7541 31.6408 22.0612L41.4653 24.0459C42.4505 24.2449 43.4683 23.9342 44.1906 23.2353C51.829 15.8452 59.8153 10.5783 68.1498 7.43465C76.2211 4.39024 84.5208 3.36971 93.0491 4.37306Z" fill="#6644FF"/>
<path d="M21.6786 59.367C24.3659 56.6797 27.6483 55.3168 31.5257 55.2784C35.4031 55.2401 38.6854 56.5645 41.3727 59.2518C44.06 61.9391 45.3845 65.2214 45.3461 69.0988C45.3077 72.9762 43.9449 76.2585 41.2575 78.9458C39.338 80.8653 36.1325 82.516 31.6408 83.8981C27.9167 85.0439 23.0182 86.0843 16.9452 87.019C14.9853 87.3207 13.3037 85.639 13.6053 83.6791C14.5401 77.6062 15.5804 72.7077 16.7263 68.9836C18.1083 64.492 19.7591 61.2865 21.6786 59.367Z" fill="#FF99DD"/>
</svg>
