<svg width="1512" height="441" viewBox="0 0 1512 441" fill="none" xmlns="http://www.w3.org/2000/svg">
<g clip-path="url(#clip0_188_6296)">
<g opacity="0.15">
<path d="M287.568 -1013L-253.44 -402.336C-269.643 -384.047 -278.589 -360.458 -278.589 -336.023L-278.589 -35.6171C-278.589 -11.1019 -287.595 12.5592 -303.894 30.8708L-681 454.527" stroke="url(#paint0_linear_188_6296)"/>
<path d="M302.232 -1008.6L-238.776 -397.936C-254.979 -379.647 -263.925 -356.058 -263.925 -331.624L-263.925 -31.2177C-263.925 -6.7025 -272.93 16.9586 -289.23 35.2702L-666.336 458.926" stroke="url(#paint1_linear_188_6296)"/>
<path d="M316.896 -1004.2L-224.112 -393.537C-240.315 -375.247 -249.261 -351.658 -249.261 -327.224L-249.261 -26.818C-249.261 -2.30284 -258.266 21.3582 -274.566 39.6699L-651.672 463.326" stroke="url(#paint2_linear_188_6296)"/>
<path d="M331.56 -999.803L-209.447 -389.138C-225.65 -370.849 -234.597 -347.26 -234.597 -322.826L-234.597 -22.4196C-234.597 2.09559 -243.602 25.7567 -259.902 44.0683L-637.007 467.724" stroke="url(#paint3_linear_188_6296)"/>
<path d="M346.224 -995.403L-194.783 -384.739C-210.986 -366.45 -219.932 -342.861 -219.932 -318.426L-219.932 -18.0201C-219.932 6.49501 -228.938 30.1561 -245.237 48.4677L-622.343 472.123" stroke="url(#paint4_linear_188_6296)"/>
<path d="M360.889 -991.004L-180.119 -380.34C-196.322 -362.05 -205.268 -338.461 -205.268 -314.027L-205.268 -13.6207C-205.268 10.8944 -214.274 34.5555 -230.573 52.8671L-607.679 476.523" stroke="url(#paint5_linear_188_6296)"/>
<path d="M375.553 -986.604L-165.455 -375.94C-181.658 -357.651 -190.604 -334.062 -190.604 -309.627L-190.604 -9.22108C-190.604 15.2941 -199.609 38.9552 -215.909 57.2668L-593.015 480.923" stroke="url(#paint6_linear_188_6296)"/>
<path d="M390.217 -982.205L-150.79 -371.54C-166.994 -353.251 -175.94 -329.662 -175.94 -305.228L-175.94 -4.82166C-175.94 19.6935 -184.945 43.3546 -201.245 61.6662L-578.35 485.322" stroke="url(#paint7_linear_188_6296)"/>
<path d="M404.881 -977.806L-136.126 -367.142C-152.329 -348.853 -161.275 -325.264 -161.275 -300.829L-161.275 -0.423225C-161.275 24.0919 -170.281 47.753 -186.58 66.0646L-563.686 489.72" stroke="url(#paint8_linear_188_6296)"/>
<path d="M419.546 -973.407L-121.462 -362.743C-137.665 -344.453 -146.611 -320.864 -146.611 -296.43L-146.611 3.97619C-146.611 28.4913 -155.617 52.1524 -171.916 70.4641L-549.022 494.12" stroke="url(#paint9_linear_188_6296)"/>
<path d="M434.21 -969.007L-106.798 -358.343C-123.001 -340.054 -131.947 -316.465 -131.947 -292.03L-131.947 8.37585C-131.947 32.891 -140.952 56.5521 -157.252 74.8637L-534.358 498.519" stroke="url(#paint10_linear_188_6296)"/>
<path d="M448.874 -964.608L-92.1334 -353.944C-108.337 -335.654 -117.283 -312.065 -117.283 -287.631L-117.283 12.7753C-117.283 37.2904 -126.288 60.9515 -142.588 79.2631L-519.693 502.919" stroke="url(#paint11_linear_188_6296)"/>
<path d="M463.538 -960.208L-77.4693 -349.544C-93.6725 -331.255 -102.619 -307.666 -102.619 -283.231L-102.619 17.1747C-102.619 41.6898 -111.624 65.3509 -127.924 83.6625L-505.029 507.318" stroke="url(#paint12_linear_188_6296)"/>
<path d="M478.203 -955.81L-62.805 -345.146C-79.0082 -326.856 -87.9544 -303.267 -87.9544 -278.833L-87.9544 21.5731C-87.9544 46.0883 -96.9597 69.7494 -113.259 88.061L-490.365 511.717" stroke="url(#paint13_linear_188_6296)"/>
<path d="M492.867 -951.41L-48.1407 -340.746C-64.3439 -322.457 -73.2901 -298.868 -73.2901 -274.434L-73.2901 25.9725C-73.2901 50.4877 -82.2953 74.1488 -98.595 92.4604L-475.701 516.116" stroke="url(#paint14_linear_188_6296)"/>
<path d="M507.531 -947.011L-33.4767 -336.347C-49.6798 -318.057 -58.626 -294.468 -58.626 -270.034L-58.626 30.3722C-58.626 54.8873 -67.6313 78.5484 -83.9309 96.8601L-461.037 520.516" stroke="url(#paint15_linear_188_6296)"/>
<path d="M522.195 -942.611L-18.8123 -331.947C-35.0155 -313.658 -43.9617 -290.069 -43.9617 -265.634L-43.9617 34.7716C-43.9617 59.2868 -52.967 82.9478 -69.2666 101.259L-446.372 524.915" stroke="url(#paint16_linear_188_6296)"/>
<path d="M536.859 -938.213L-4.14804 -327.549C-20.3512 -309.259 -29.2974 -285.67 -29.2974 -261.236L-29.2974 39.17C-29.2974 63.6852 -38.3027 87.3463 -54.6023 105.658L-431.708 529.314" stroke="url(#paint17_linear_188_6296)"/>
<path d="M551.524 -933.813L10.516 -323.149C-5.68711 -304.86 -14.6333 -281.271 -14.6333 -256.837L-14.6333 43.5695C-14.6334 68.0846 -23.6386 91.7457 -39.9382 110.057L-417.044 533.713" stroke="url(#paint18_linear_188_6296)"/>
<path d="M566.188 -929.414L25.1803 -318.75C8.97719 -300.46 0.0309604 -276.871 0.0309601 -252.437L0.0309567 47.9691C0.0309564 72.4843 -8.9743 96.1453 -25.2739 114.457L-402.38 538.113" stroke="url(#paint19_linear_188_6296)"/>
<path d="M580.852 -925.014L39.8446 -314.35C23.6415 -296.061 14.6953 -272.472 14.6953 -248.038L14.6953 52.3685C14.6953 76.8837 5.69001 100.545 -10.6096 118.856L-387.715 542.512" stroke="url(#paint20_linear_188_6296)"/>
<path d="M595.516 -920.615L54.5089 -309.951C38.3058 -291.662 29.3596 -268.073 29.3596 -243.638L29.3596 56.7679C29.3596 81.2831 20.3543 104.944 4.05471 123.256L-373.051 546.912" stroke="url(#paint21_linear_188_6296)"/>
<path d="M610.181 -916.217L69.173 -305.552C52.9699 -287.263 44.0236 -263.674 44.0236 -239.24L44.0236 61.1664C44.0236 85.6815 35.0184 109.343 18.7188 127.654L-358.387 551.31" stroke="url(#paint22_linear_188_6296)"/>
<path d="M624.845 -911.817L83.8373 -301.153C67.6342 -282.863 58.6879 -259.274 58.6879 -234.84L58.6879 65.566C58.6879 90.0812 49.6827 113.742 33.3831 132.054L-343.723 555.71" stroke="url(#paint23_linear_188_6296)"/>
<path d="M639.509 -907.417L98.5016 -296.753C82.2985 -278.464 73.3522 -254.875 73.3522 -230.441L73.3522 69.9654C73.3522 94.4806 64.347 118.142 48.0474 136.453L-329.058 560.109" stroke="url(#paint24_linear_188_6296)"/>
<path d="M654.173 -903.018L113.166 -292.354C96.9625 -274.065 88.0163 -250.476 88.0163 -226.041L88.0163 74.3649C88.0163 98.88 79.0111 122.541 62.7114 140.853L-314.394 564.508" stroke="url(#paint25_linear_188_6296)"/>
<path d="M668.838 -898.618L127.83 -287.954C111.627 -269.665 102.681 -246.076 102.681 -221.642L102.681 78.7645C102.681 103.28 93.6754 126.941 77.3758 145.252L-299.73 568.908" stroke="url(#paint26_linear_188_6296)"/>
<path d="M683.502 -894.22L142.494 -283.556C126.291 -265.267 117.345 -241.678 117.345 -217.243L117.345 83.1627C117.345 107.678 108.339 131.339 92.0398 149.651L-285.066 573.306" stroke="url(#paint27_linear_188_6296)"/>
<path d="M698.166 -889.821L157.158 -279.156C140.955 -260.867 132.009 -237.278 132.009 -212.844L132.009 87.5624C132.009 112.078 123.004 135.739 106.704 154.05L-270.402 577.706" stroke="url(#paint28_linear_188_6296)"/>
<path d="M712.83 -885.421L171.823 -274.757C155.62 -256.468 146.673 -232.879 146.673 -208.444L146.673 91.9618C146.673 116.477 137.668 140.138 121.368 158.45L-255.737 582.105" stroke="url(#paint29_linear_188_6296)"/>
<path d="M727.495 -881.021L186.487 -270.357C170.284 -252.068 161.338 -228.479 161.338 -204.045L161.338 96.3614C161.338 120.877 152.332 144.538 136.033 162.849L-241.073 586.505" stroke="url(#paint30_linear_188_6296)"/>
<path d="M742.159 -876.622L201.151 -265.958C184.948 -247.669 176.002 -224.08 176.002 -199.645L176.002 100.761C176.002 125.276 166.996 148.937 150.697 167.249L-226.409 590.904" stroke="url(#paint31_linear_188_6296)"/>
<path d="M756.823 -872.224L215.815 -261.56C199.612 -243.27 190.666 -219.681 190.666 -195.247L190.666 105.159C190.666 129.674 181.661 153.336 165.361 171.647L-211.745 595.303" stroke="url(#paint32_linear_188_6296)"/>
<path d="M771.487 -867.824L230.48 -257.16C214.277 -238.871 205.33 -215.282 205.33 -190.847L205.33 109.559C205.33 134.074 196.325 157.735 180.025 176.047L-197.08 599.702" stroke="url(#paint33_linear_188_6296)"/>
<path d="M786.151 -863.425L245.144 -252.761C228.941 -234.471 219.995 -210.882 219.995 -186.448L219.995 113.958C219.995 138.473 210.989 162.134 194.69 180.446L-182.416 604.102" stroke="url(#paint34_linear_188_6296)"/>
<path d="M800.816 -859.025L259.808 -248.361C243.605 -230.072 234.659 -206.483 234.659 -182.048L234.659 118.358C234.659 142.873 225.653 166.534 209.354 184.846L-167.752 608.501" stroke="url(#paint35_linear_188_6296)"/>
<path d="M815.48 -854.626L274.472 -243.962C258.269 -225.672 249.323 -202.083 249.323 -177.649L249.323 122.757C249.323 147.272 240.318 170.933 224.018 189.245L-153.088 612.901" stroke="url(#paint36_linear_188_6296)"/>
<path d="M830.144 -850.227L289.137 -239.563C272.933 -221.274 263.987 -197.685 263.987 -173.25L263.987 127.156C263.987 151.671 254.982 175.332 238.682 193.644L-138.423 617.299" stroke="url(#paint37_linear_188_6296)"/>
<path d="M844.808 -845.828L303.801 -235.164C287.598 -216.874 278.652 -193.285 278.652 -168.851L278.652 131.555C278.652 156.07 269.646 179.731 253.347 198.043L-123.759 621.699" stroke="url(#paint38_linear_188_6296)"/>
<path d="M859.472 -841.428L318.465 -230.764C302.262 -212.475 293.315 -188.886 293.315 -164.451L293.315 135.955C293.315 160.47 284.31 184.131 268.011 202.443L-109.095 626.098" stroke="url(#paint39_linear_188_6296)"/>
<path d="M874.137 -837.029L333.129 -226.365C316.926 -208.075 307.98 -184.486 307.98 -160.052L307.98 140.354C307.98 164.869 298.975 188.53 282.675 206.842L-94.4307 630.498" stroke="url(#paint40_linear_188_6296)"/>
<path d="M888.801 -832.629L347.793 -221.965C331.59 -203.676 322.644 -180.087 322.644 -155.653L322.644 144.754C322.644 169.269 313.639 192.93 297.339 211.241L-79.7666 634.897" stroke="url(#paint41_linear_188_6296)"/>
<path d="M903.465 -828.231L362.458 -217.567C346.255 -199.277 337.308 -175.689 337.308 -151.254L337.308 149.152C337.308 173.667 328.303 197.328 312.003 215.64L-65.1023 639.296" stroke="url(#paint42_linear_188_6296)"/>
<path d="M918.129 -823.831L377.122 -213.167C360.919 -194.878 351.972 -171.289 351.972 -146.854L351.972 153.552C351.972 178.067 342.967 201.728 326.668 220.04L-50.4382 643.695" stroke="url(#paint43_linear_188_6296)"/>
<path d="M932.794 -819.432L391.786 -208.768C375.583 -190.478 366.637 -166.889 366.637 -142.455L366.637 157.951C366.637 182.466 357.631 206.127 341.332 224.439L-35.7739 648.095" stroke="url(#paint44_linear_188_6296)"/>
<path d="M947.458 -815.032L406.45 -204.368C390.247 -186.079 381.301 -162.49 381.301 -138.056L381.301 162.35C381.301 186.866 372.296 210.527 355.996 228.838L-21.1096 652.494" stroke="url(#paint45_linear_188_6296)"/>
<path d="M962.122 -810.634L421.114 -199.97C404.911 -181.681 395.965 -158.092 395.965 -133.657L395.965 166.749C395.965 191.264 386.96 214.925 370.66 233.237L-6.44556 656.892" stroke="url(#paint46_linear_188_6296)"/>
<path d="M976.786 -806.234L435.779 -195.57C419.576 -177.281 410.629 -153.692 410.629 -129.257L410.629 171.149C410.629 195.664 401.624 219.325 385.324 237.636L8.21875 661.292" stroke="url(#paint47_linear_188_6296)"/>
<path d="M991.451 -801.835L450.443 -191.171C434.24 -172.881 425.294 -149.293 425.294 -124.858L425.294 175.548C425.294 200.063 416.288 223.724 399.989 242.036L22.8831 665.692" stroke="url(#paint48_linear_188_6296)"/>
<path d="M1006.11 -797.436L465.107 -186.771C448.904 -168.482 439.958 -144.893 439.958 -120.459L439.958 179.947C439.958 204.463 430.953 228.124 414.653 246.435L37.5474 670.091" stroke="url(#paint49_linear_188_6296)"/>
<path d="M1020.78 -793.036L479.771 -182.372C463.568 -164.082 454.622 -140.493 454.622 -116.059L454.622 184.347C454.622 208.862 445.617 232.523 429.317 250.835L52.2114 674.491" stroke="url(#paint50_linear_188_6296)"/>
<path d="M1035.44 -788.638L494.436 -177.974C478.233 -159.684 469.287 -136.095 469.287 -111.661L469.287 188.745C469.287 213.26 460.281 236.921 443.982 255.233L66.876 678.889" stroke="url(#paint51_linear_188_6296)"/>
<path d="M1050.11 -784.238L509.1 -173.574C492.897 -155.285 483.951 -131.696 483.951 -107.261L483.951 193.145C483.951 217.66 474.945 241.321 458.646 259.633L81.54 683.288" stroke="url(#paint52_linear_188_6296)"/>
<path d="M1064.77 -779.839L523.764 -169.174C507.561 -150.885 498.615 -127.296 498.615 -102.862L498.615 197.544C498.615 222.059 489.61 245.721 473.31 264.032L96.2043 687.688" stroke="url(#paint53_linear_188_6296)"/>
<path d="M1079.44 -775.439L538.428 -164.775C522.225 -146.485 513.279 -122.897 513.279 -98.4621L513.279 201.944C513.279 226.459 504.274 250.12 487.974 268.432L110.868 692.088" stroke="url(#paint54_linear_188_6296)"/>
<path d="M1094.1 -771.04L553.093 -160.375C536.89 -142.086 527.943 -118.497 527.943 -94.0627L527.943 206.343C527.943 230.859 518.938 254.52 502.638 272.831L125.533 696.487" stroke="url(#paint55_linear_188_6296)"/>
<path d="M1108.76 -766.641L567.757 -155.977C551.554 -137.688 542.607 -114.099 542.607 -89.6642L542.607 210.742C542.607 235.257 533.602 258.918 517.303 277.23L140.197 700.885" stroke="url(#paint56_linear_188_6296)"/>
<path d="M1123.43 -762.242L582.421 -151.578C566.218 -133.288 557.272 -109.699 557.272 -85.2648L557.272 215.141C557.272 239.656 548.266 263.317 531.967 281.629L154.861 705.285" stroke="url(#paint57_linear_188_6296)"/>
<path d="M1138.09 -757.842L597.085 -147.178C580.882 -128.889 571.936 -105.3 571.936 -80.8654L571.936 219.541C571.936 244.056 562.931 267.717 546.631 286.029L169.525 709.684" stroke="url(#paint58_linear_188_6296)"/>
<path d="M1152.76 -753.443L611.749 -142.779C595.546 -124.489 586.6 -100.9 586.6 -76.4657L586.6 223.94C586.6 248.455 577.595 272.117 561.295 290.428L184.189 714.084" stroke="url(#paint59_linear_188_6296)"/>
<path d="M1167.42 -749.043L626.414 -138.379C610.211 -120.09 601.264 -96.5008 601.264 -72.0663L601.264 228.34C601.264 252.855 592.259 276.516 575.959 294.828L198.854 718.483" stroke="url(#paint60_linear_188_6296)"/>
<path d="M1182.09 -744.645L641.078 -133.981C624.875 -115.691 615.929 -92.1023 615.929 -67.6679L615.929 232.738C615.929 257.253 606.923 280.914 590.624 299.226L213.518 722.882" stroke="url(#paint61_linear_188_6296)"/>
<path d="M1196.75 -740.245L655.742 -129.581C639.539 -111.292 630.593 -87.7029 630.593 -63.2685L630.593 237.138C630.593 261.653 621.587 285.314 605.288 303.625L228.182 727.281" stroke="url(#paint62_linear_188_6296)"/>
<path d="M1211.41 -735.846L670.407 -125.182C654.204 -106.892 645.257 -83.3032 645.257 -58.8688L645.257 241.537C645.257 266.052 636.252 289.713 619.952 308.025L242.847 731.681" stroke="url(#paint63_linear_188_6296)"/>
<path d="M1226.08 -731.446L685.071 -120.782C668.868 -102.493 659.921 -78.9038 659.921 -54.4694L659.921 245.937C659.921 270.452 650.916 294.113 634.616 312.425L257.511 736.08" stroke="url(#paint64_linear_188_6296)"/>
<path d="M1240.74 -727.047L699.735 -116.383C683.532 -98.0934 674.586 -74.5044 674.586 -50.07L674.586 250.336C674.586 274.851 665.58 298.512 649.281 316.824L272.175 740.48" stroke="url(#paint65_linear_188_6296)"/>
<path d="M1255.41 -722.648L714.399 -111.984C698.196 -93.695 689.25 -70.106 689.25 -45.6715L689.25 254.734C689.25 279.25 680.245 302.911 663.945 321.222L286.839 744.878" stroke="url(#paint66_linear_188_6296)"/>
<path d="M1270.07 -718.249L729.064 -107.585C712.86 -89.2953 703.914 -65.7063 703.914 -41.2719L703.914 259.134C703.914 283.649 694.909 307.31 678.609 325.622L301.504 749.278" stroke="url(#paint67_linear_188_6296)"/>
<path d="M1284.74 -713.849L743.728 -103.185C727.525 -84.8959 718.578 -61.3069 718.578 -36.8725L718.578 263.534C718.578 288.049 709.573 311.71 693.273 330.021L316.168 753.677" stroke="url(#paint68_linear_188_6296)"/>
<path d="M1299.4 -709.45L758.392 -98.7858C742.189 -80.4965 733.242 -56.9075 733.242 -32.4731L733.242 267.933C733.242 292.448 724.237 316.109 707.938 334.421L330.832 758.077" stroke="url(#paint69_linear_188_6296)"/>
<path d="M1314.06 -705.05L773.056 -94.3862C756.853 -76.0968 747.907 -52.5078 747.907 -28.0734L747.907 272.333C747.907 296.848 738.901 320.509 722.602 338.821L345.496 762.476" stroke="url(#paint70_linear_188_6296)"/>
<path d="M1328.73 -700.652L787.72 -89.9877C771.517 -71.6984 762.571 -48.1094 762.571 -23.675L762.571 276.731C762.571 301.246 753.566 324.907 737.266 343.219L360.16 766.875" stroke="url(#paint71_linear_188_6296)"/>
<path d="M1343.39 -696.252L802.385 -85.5883C786.182 -67.299 777.235 -43.71 777.235 -19.2756L777.235 281.13C777.235 305.646 768.23 329.307 751.93 347.618L374.825 771.274" stroke="url(#paint72_linear_188_6296)"/>
<path d="M1358.06 -691.853L817.049 -81.1889C800.846 -62.8996 791.899 -39.3106 791.899 -14.8761L791.899 285.53C791.899 310.045 782.894 333.706 766.595 352.018L389.489 775.673" stroke="url(#paint73_linear_188_6296)"/>
<path d="M1372.72 -687.453L831.713 -76.7892C815.51 -58.4999 806.564 -34.9109 806.564 -10.4765L806.564 289.93C806.564 314.445 797.559 338.106 781.259 356.417L404.153 780.073" stroke="url(#paint74_linear_188_6296)"/>
<path d="M1387.38 -683.055L846.377 -72.391C830.174 -54.1017 821.228 -30.5127 821.228 -6.07829L821.228 294.328C821.228 318.843 812.223 342.504 795.923 360.816L418.817 784.471" stroke="url(#paint75_linear_188_6296)"/>
<path d="M1402.05 -678.656L861.041 -67.9914C844.838 -49.702 835.892 -26.1131 835.892 -1.67863L835.892 298.727C835.892 323.243 826.887 346.904 810.587 365.215L433.481 788.871" stroke="url(#paint76_linear_188_6296)"/>
<path d="M1416.71 -674.256L875.706 -63.592C859.503 -45.3026 850.557 -21.7136 850.557 2.72079L850.557 303.127C850.557 327.642 841.551 351.303 825.252 369.615L448.146 793.27" stroke="url(#paint77_linear_188_6296)"/>
<path d="M1431.38 -669.856L890.37 -59.1923C874.167 -40.903 865.22 -17.314 865.22 7.12045L865.22 307.526C865.22 332.042 856.215 355.703 839.916 374.014L462.81 797.67" stroke="url(#paint78_linear_188_6296)"/>
<path d="M1446.04 -665.457L905.034 -54.7929C888.831 -36.5036 879.885 -12.9146 879.885 11.5199L879.885 311.926C879.885 336.441 870.88 360.102 854.58 378.414L477.474 802.069" stroke="url(#paint79_linear_188_6296)"/>
<path d="M1460.71 -661.059L919.699 -50.3945C903.496 -32.1051 894.549 -8.51614 894.549 15.9183L894.549 316.324C894.549 340.839 885.544 364.501 869.244 382.812L492.139 806.468" stroke="url(#paint80_linear_188_6296)"/>
<path d="M1475.37 -656.659L934.363 -45.9951C918.16 -27.7057 909.213 -4.11673 909.213 20.3177L909.213 320.724C909.213 345.239 900.208 368.9 883.908 387.212L506.803 810.867" stroke="url(#paint81_linear_188_6296)"/>
<path d="M1490.03 -652.26L949.027 -41.5956C932.824 -23.3063 923.877 0.282689 923.877 24.7171L923.877 325.123C923.877 349.638 914.872 373.299 898.573 391.611L521.467 815.267" stroke="url(#paint82_linear_188_6296)"/>
<path d="M1504.7 -647.86L963.691 -37.196C947.488 -18.9066 938.542 4.68235 938.542 29.1168L938.542 329.523C938.542 354.038 929.537 377.699 913.237 396.011L536.131 819.666" stroke="url(#paint83_linear_188_6296)"/>
<path d="M1519.36 -643.461L978.355 -32.7966C962.152 -14.5072 953.206 9.08176 953.206 33.5162L953.206 333.922C953.206 358.437 944.201 382.098 927.901 400.41L550.795 824.066" stroke="url(#paint84_linear_188_6296)"/>
<path d="M1534.03 -639.062L993.019 -28.3981C976.816 -10.1088 967.87 13.4802 967.87 37.9146L967.87 338.321C967.87 362.836 958.865 386.497 942.565 404.809L565.459 828.464" stroke="url(#paint85_linear_188_6296)"/>
<path d="M1548.69 -634.663L1007.68 -23.9987C991.481 -5.70937 982.534 17.8796 982.534 42.314L982.534 342.72C982.534 367.235 973.529 390.896 957.23 409.208L580.124 832.864" stroke="url(#paint86_linear_188_6296)"/>
<path d="M1563.36 -630.263L1022.35 -19.5991C1006.14 -1.30971 997.199 22.2793 997.199 46.7137L997.199 347.12C997.199 371.635 988.193 395.296 971.894 413.608L594.788 837.263" stroke="url(#paint87_linear_188_6296)"/>
<path d="M1578.02 -625.864L1037.01 -15.1996C1020.81 3.0897 1011.86 26.6787 1011.86 51.1131L1011.86 351.519C1011.86 376.034 1002.86 399.695 986.558 418.007L609.452 841.663" stroke="url(#paint88_linear_188_6296)"/>
<path d="M1592.68 -621.464L1051.68 -10.8002C1035.47 7.48912 1026.53 31.0781 1026.53 55.5125L1026.53 355.919C1026.53 380.434 1017.52 404.095 1001.22 422.406L624.116 846.062" stroke="url(#paint89_linear_188_6296)"/>
<path d="M1607.35 -617.066L1066.34 -6.40179C1050.14 11.8876 1041.19 35.4765 1041.19 59.911L1041.19 360.317C1041.19 384.832 1032.19 408.493 1015.89 426.805L638.781 850.461" stroke="url(#paint90_linear_188_6296)"/>
<path d="M1622.01 -612.666L1081 -2.00213C1064.8 16.2872 1055.86 39.8762 1055.86 64.3106L1055.86 364.717C1055.86 389.232 1046.85 412.893 1030.55 431.205L653.445 854.86" stroke="url(#paint91_linear_188_6296)"/>
<path d="M1636.68 -608.267L1095.67 2.39728C1079.47 20.6866 1070.52 44.2756 1070.52 68.71L1070.52 369.116C1070.52 393.631 1061.51 417.292 1045.22 435.604L668.109 859.26" stroke="url(#paint92_linear_188_6296)"/>
<path d="M1651.34 -603.867L1110.33 6.79682C1094.13 25.0862 1085.18 48.6751 1085.18 73.1096L1085.18 373.516C1085.18 398.031 1076.18 421.692 1059.88 440.003L682.774 863.659" stroke="url(#paint93_linear_188_6296)"/>
<path d="M1666.01 -599.469L1125 11.1951C1108.79 29.4845 1099.85 53.0735 1099.85 77.5079L1099.85 377.914C1099.85 402.429 1090.84 426.09 1074.54 444.402L697.437 868.058" stroke="url(#paint94_linear_188_6296)"/>
<path d="M1680.67 -595.069L1139.66 15.5947C1123.46 33.884 1114.51 57.473 1114.51 81.9074L1114.51 382.313C1114.51 406.829 1105.51 430.49 1089.21 448.801L712.102 872.457" stroke="url(#paint95_linear_188_6296)"/>
<path d="M1695.33 -590.67L1154.33 19.9942C1138.12 38.2835 1129.18 61.8725 1129.18 86.307L1129.18 386.713C1129.18 411.228 1120.17 434.889 1103.87 453.201L726.766 876.857" stroke="url(#paint96_linear_188_6296)"/>
<path d="M1710 -586.271L1168.99 24.3936C1152.79 42.683 1143.84 66.2719 1143.84 90.7064L1143.84 391.112C1143.84 415.628 1134.84 439.289 1118.54 457.6L741.43 881.256" stroke="url(#paint97_linear_188_6296)"/>
<path d="M1724.66 -581.871L1183.65 28.7932C1167.45 47.0825 1158.51 70.6715 1158.51 95.1059L1158.51 395.512C1158.51 420.027 1149.5 443.688 1133.2 462L756.094 885.656" stroke="url(#paint98_linear_188_6296)"/>
<path d="M1739.33 -577.473L1198.32 33.1916C1182.12 51.4809 1173.17 75.0699 1173.17 99.5044L1173.17 399.91C1173.17 424.426 1164.16 448.087 1147.86 466.398L770.759 890.054" stroke="url(#paint99_linear_188_6296)"/>
<path d="M1753.99 -573.073L1212.98 37.5911C1196.78 55.8805 1187.83 79.4695 1187.83 103.904L1187.83 404.31C1187.83 428.825 1178.83 452.486 1162.53 470.798L785.423 894.454" stroke="url(#paint100_linear_188_6296)"/>
<path d="M1768.65 -568.674L1227.65 41.9905C1211.44 60.2799 1202.5 83.8689 1202.5 108.303L1202.5 408.709C1202.5 433.225 1193.49 456.886 1177.19 475.197L800.087 898.853" stroke="url(#paint101_linear_188_6296)"/>
<path d="M1783.32 -564.274L1242.31 46.3901C1226.11 64.6794 1217.16 88.2684 1217.16 112.703L1217.16 413.109C1217.16 437.624 1208.16 461.285 1191.86 479.597L814.751 903.252" stroke="url(#paint102_linear_188_6296)"/>
<path d="M1797.98 -559.875L1256.98 50.7896C1240.77 69.079 1231.83 92.6679 1231.83 117.102L1231.83 417.508C1231.83 442.024 1222.82 465.685 1206.52 483.996L829.416 907.652" stroke="url(#paint103_linear_188_6296)"/>
<path d="M1812.65 -555.476L1271.64 55.1879C1255.44 73.4773 1246.49 97.0663 1246.49 121.501L1246.49 421.907C1246.49 446.422 1237.49 470.083 1221.19 488.395L844.08 912.05" stroke="url(#paint104_linear_188_6296)"/>
<path d="M1827.31 -551.077L1286.3 59.5875C1270.1 77.8768 1261.15 101.466 1261.15 125.9L1261.15 426.306C1261.15 450.821 1252.15 474.483 1235.85 492.794L858.744 916.45" stroke="url(#paint105_linear_188_6296)"/>
<path d="M1841.98 -546.677L1300.97 63.987C1284.77 82.2763 1275.82 105.865 1275.82 130.3L1275.82 430.706C1275.82 455.221 1266.81 478.882 1250.51 497.194L873.409 920.849" stroke="url(#paint106_linear_188_6296)"/>
<path d="M1856.64 -542.278L1315.63 68.3865C1299.43 86.6759 1290.48 110.265 1290.48 134.699L1290.48 435.105C1290.48 459.62 1281.48 483.282 1265.18 501.593L888.073 925.249" stroke="url(#paint107_linear_188_6296)"/>
<path d="M1871.3 -537.878L1330.3 72.786C1314.09 91.0753 1305.15 114.664 1305.15 139.099L1305.15 439.505C1305.15 464.02 1296.14 487.681 1279.84 505.993L902.737 929.648" stroke="url(#paint108_linear_188_6296)"/>
<path d="M1885.97 -533.48L1344.96 77.1844C1328.76 95.4737 1319.81 119.063 1319.81 143.497L1319.81 443.903C1319.81 468.418 1310.81 492.079 1294.51 510.391L917.401 934.047" stroke="url(#paint109_linear_188_6296)"/>
<path d="M1900.63 -529.08L1359.63 81.5838C1343.42 99.8731 1334.48 123.462 1334.48 147.897L1334.48 448.303C1334.48 472.818 1325.47 496.479 1309.17 514.79L932.065 938.446" stroke="url(#paint110_linear_188_6296)"/>
<path d="M1915.3 -524.681L1374.29 85.9833C1358.09 104.273 1349.14 127.862 1349.14 152.296L1349.14 452.702C1349.14 477.217 1340.13 500.878 1323.84 519.19L946.729 942.846" stroke="url(#paint111_linear_188_6296)"/>
<path d="M1929.96 -520.281L1388.95 90.3829C1372.75 108.672 1363.8 132.261 1363.8 156.696L1363.8 457.102C1363.8 481.617 1354.8 505.278 1338.5 523.59L961.394 947.245" stroke="url(#paint112_linear_188_6296)"/>
<path d="M1944.63 -515.882L1403.62 94.7824C1387.41 113.072 1378.47 136.661 1378.47 161.095L1378.47 461.501C1378.47 486.016 1369.46 509.677 1353.16 527.989L976.058 951.645" stroke="url(#paint113_linear_188_6296)"/>
<path d="M1959.29 -511.483L1418.28 99.1807C1402.08 117.47 1393.13 141.059 1393.13 165.493L1393.13 465.9C1393.13 490.415 1384.13 514.076 1367.83 532.387L990.722 956.043" stroke="url(#paint114_linear_188_6296)"/>
<path d="M1973.95 -507.084L1432.95 103.58C1416.74 121.87 1407.8 145.459 1407.8 169.893L1407.8 470.299C1407.8 494.814 1398.79 518.475 1382.49 536.787L1005.39 960.443" stroke="url(#paint115_linear_188_6296)"/>
<path d="M1988.62 -502.684L1447.61 107.98C1431.41 126.269 1422.46 149.858 1422.46 174.293L1422.46 474.699C1422.46 499.214 1413.46 522.875 1397.16 541.186L1020.05 964.842" stroke="url(#paint116_linear_188_6296)"/>
<path d="M2003.28 -498.285L1462.27 112.379C1446.07 130.669 1437.13 154.258 1437.13 178.692L1437.13 479.098C1437.13 503.613 1428.12 527.274 1411.82 545.586L1034.71 969.242" stroke="url(#paint117_linear_188_6296)"/>
<path d="M2017.95 -493.885L1476.94 116.779C1460.74 135.068 1451.79 158.657 1451.79 183.092L1451.79 483.498C1451.79 508.013 1442.78 531.674 1426.49 549.986L1049.38 973.641" stroke="url(#paint118_linear_188_6296)"/>
<path d="M2032.61 -489.487L1491.6 121.177C1475.4 139.467 1466.45 163.056 1466.45 187.49L1466.45 487.896C1466.45 512.411 1457.45 536.072 1441.15 554.384L1064.04 978.04" stroke="url(#paint119_linear_188_6296)"/>
<path d="M2047.28 -485.087L1506.27 125.577C1490.06 143.866 1481.12 167.455 1481.12 191.889L1481.12 492.296C1481.12 516.811 1472.11 540.472 1455.81 558.783L1078.71 982.439" stroke="url(#paint120_linear_188_6296)"/>
<path d="M2061.94 -480.688L1520.93 129.976C1504.73 148.265 1495.78 171.854 1495.78 196.289L1495.78 496.695C1495.78 521.21 1486.78 544.871 1470.48 563.183L1093.37 986.839" stroke="url(#paint121_linear_188_6296)"/>
<path d="M2076.6 -476.288L1535.6 134.376C1519.39 152.665 1510.45 176.254 1510.45 200.688L1510.45 501.094C1510.45 525.61 1501.44 549.271 1485.14 567.582L1108.04 991.238" stroke="url(#paint122_linear_188_6296)"/>
<path d="M2091.27 -471.89L1550.26 138.774C1534.06 157.063 1525.11 180.652 1525.11 205.087L1525.11 505.493C1525.11 530.008 1516.11 553.669 1499.81 571.981L1122.7 995.636" stroke="url(#paint123_linear_188_6296)"/>
<path d="M2105.93 -467.49L1564.92 143.174C1548.72 161.463 1539.78 185.052 1539.78 209.486L1539.78 509.892C1539.78 534.408 1530.77 558.069 1514.47 576.38L1137.36 1000.04" stroke="url(#paint124_linear_188_6296)"/>
<path d="M2120.6 -463.091L1579.59 147.573C1563.39 165.862 1554.44 189.451 1554.44 213.886L1554.44 514.292C1554.44 538.807 1545.43 562.468 1529.13 580.78L1152.03 1004.44" stroke="url(#paint125_linear_188_6296)"/>
<path d="M2135.26 -458.692L1594.25 151.973C1578.05 170.262 1569.1 193.851 1569.1 218.285L1569.1 518.691C1569.1 543.207 1560.1 566.868 1543.8 585.179L1166.69 1008.83" stroke="url(#paint126_linear_188_6296)"/>
<path d="M2149.92 -454.292L1608.92 156.372C1592.71 174.661 1583.77 198.25 1583.77 222.685L1583.77 523.091C1583.77 547.606 1574.76 571.267 1558.46 589.579L1181.36 1013.23" stroke="url(#paint127_linear_188_6296)"/>
<path d="M2164.59 -449.894L1623.58 160.77C1607.38 179.06 1598.43 202.649 1598.43 227.083L1598.43 527.489C1598.43 552.004 1589.43 575.665 1573.13 593.977L1196.02 1017.63" stroke="url(#paint128_linear_188_6296)"/>
<path d="M2179.25 -445.494L1638.25 165.17C1622.04 183.459 1613.1 207.048 1613.1 231.483L1613.1 531.889C1613.1 556.404 1604.09 580.065 1587.79 598.377L1210.69 1022.03" stroke="url(#paint129_linear_188_6296)"/>
<path d="M2193.92 -441.095L1652.91 169.569C1636.71 187.859 1627.76 211.448 1627.76 235.882L1627.76 536.288C1627.76 560.803 1618.76 584.464 1602.46 602.776L1225.35 1026.43" stroke="url(#paint130_linear_188_6296)"/>
<path d="M2208.58 -436.695L1667.57 173.969C1651.37 192.258 1642.42 215.847 1642.42 240.282L1642.42 540.688C1642.42 565.203 1633.42 588.864 1617.12 607.176L1240.01 1030.83" stroke="url(#paint131_linear_188_6296)"/>
<path d="M2223.25 -432.296L1682.24 178.368C1666.04 196.658 1657.09 220.247 1657.09 244.681L1657.09 545.087C1657.09 569.602 1648.08 593.264 1631.78 611.575L1254.68 1035.23" stroke="url(#paint132_linear_188_6296)"/>
<path d="M2237.91 -427.897L1696.9 182.767C1680.7 201.056 1671.75 224.645 1671.75 249.08L1671.75 549.486C1671.75 574.001 1662.75 597.662 1646.45 615.974L1269.34 1039.63" stroke="url(#paint133_linear_188_6296)"/>
<path d="M2252.57 -423.498L1711.57 187.166C1695.36 205.456 1686.42 229.045 1686.42 253.479L1686.42 553.885C1686.42 578.4 1677.41 602.061 1661.11 620.373L1284.01 1044.03" stroke="url(#paint134_linear_188_6296)"/>
<path d="M2267.24 -419.098L1726.23 191.566C1710.03 209.855 1701.08 233.444 1701.08 257.879L1701.08 558.285C1701.08 582.8 1692.08 606.461 1675.78 624.773L1298.67 1048.43" stroke="url(#paint135_linear_188_6296)"/>
<path d="M2281.9 -414.699L1740.9 195.965C1724.69 214.255 1715.75 237.844 1715.75 262.278L1715.75 562.684C1715.75 587.199 1706.74 610.86 1690.44 629.172L1313.34 1052.83" stroke="url(#paint136_linear_188_6296)"/>
<path d="M2296.57 -410.299L1755.56 200.365C1739.36 218.654 1730.41 242.243 1730.41 266.678L1730.41 567.084C1730.41 591.599 1721.41 615.26 1705.11 633.571L1328 1057.23" stroke="url(#paint137_linear_188_6296)"/>
<path d="M2311.23 -405.901L1770.22 204.763C1754.02 223.053 1745.07 246.642 1745.07 271.076L1745.07 571.482C1745.07 595.997 1736.07 619.658 1719.77 637.97L1342.66 1061.63" stroke="url(#paint138_linear_188_6296)"/>
<path d="M2325.9 -401.501L1784.89 209.163C1768.68 227.452 1759.74 251.041 1759.74 275.476L1759.74 575.882C1759.74 600.397 1750.73 624.058 1734.43 642.369L1357.33 1066.03" stroke="url(#paint139_linear_188_6296)"/>
<path d="M2340.56 -397.102L1799.55 213.562C1783.35 231.852 1774.4 255.441 1774.4 279.875L1774.4 580.281C1774.4 604.796 1765.4 628.457 1749.1 646.769L1371.99 1070.42" stroke="url(#paint140_linear_188_6296)"/>
<path d="M2355.22 -392.702L1814.22 217.962C1798.01 236.251 1789.07 259.84 1789.07 284.274L1789.07 584.681C1789.07 609.196 1780.06 632.857 1763.76 651.168L1386.66 1074.82" stroke="url(#paint141_linear_188_6296)"/>
<path d="M2369.89 -388.303L1828.88 222.361C1812.68 240.651 1803.73 264.24 1803.73 288.674L1803.73 589.08C1803.73 613.595 1794.73 637.256 1778.43 655.568L1401.32 1079.22" stroke="url(#paint142_linear_188_6296)"/>
<path d="M2384.55 -383.904L1843.54 226.76C1827.34 245.049 1818.4 268.638 1818.4 293.072L1818.4 593.479C1818.4 617.994 1809.39 641.655 1793.09 659.966L1415.98 1083.62" stroke="url(#paint143_linear_188_6296)"/>
<path d="M2399.22 -379.505L1858.21 231.159C1842.01 249.449 1833.06 273.038 1833.06 297.472L1833.06 597.878C1833.06 622.393 1824.05 646.054 1807.76 664.366L1430.65 1088.02" stroke="url(#paint144_linear_188_6296)"/>
<path d="M2413.88 -375.105L1872.87 235.559C1856.67 253.848 1847.72 277.437 1847.72 301.871L1847.72 602.277C1847.72 626.793 1838.72 650.454 1822.42 668.765L1445.31 1092.42" stroke="url(#paint145_linear_188_6296)"/>
<path d="M2428.55 -370.706L1887.54 239.958C1871.33 258.248 1862.39 281.837 1862.39 306.271L1862.39 606.677C1862.39 631.192 1853.38 654.853 1837.08 673.165L1459.98 1096.82" stroke="url(#paint146_linear_188_6296)"/>
<path d="M2443.21 -366.306L1902.2 244.358C1886 262.647 1877.05 286.236 1877.05 310.67L1877.05 611.077C1877.05 635.592 1868.05 659.253 1851.75 677.564L1474.64 1101.22" stroke="url(#paint147_linear_188_6296)"/>
<path d="M2457.87 -361.908L1916.87 248.756C1900.66 267.046 1891.72 290.634 1891.72 315.069L1891.72 615.475C1891.72 639.99 1882.71 663.651 1866.41 681.963L1489.31 1105.62" stroke="url(#paint148_linear_188_6296)"/>
<path d="M2472.54 -357.509L1931.53 253.156C1915.33 271.445 1906.38 295.034 1906.38 319.468L1906.38 619.874C1906.38 644.39 1897.38 668.051 1881.08 686.362L1503.97 1110.02" stroke="url(#paint149_linear_188_6296)"/>
</g>
<rect y="386" width="1600" height="55" fill="url(#paint150_linear_188_6296)"/>
</g>
<defs>
<linearGradient id="paint0_linear_188_6296" x1="295.638" y1="-1013" x2="-681" y2="454.889" gradientUnits="userSpaceOnUse">
<stop offset="0.395833" stop-color="#ECF0F5"/>
<stop offset="0.973958" stop-color="#ECF0F5" stop-opacity="0"/>
</linearGradient>
<linearGradient id="paint1_linear_188_6296" x1="310.302" y1="-1008.6" x2="-666.336" y2="459.289" gradientUnits="userSpaceOnUse">
<stop offset="0.395833" stop-color="#ECF0F5"/>
<stop offset="0.973958" stop-color="#ECF0F5" stop-opacity="0"/>
</linearGradient>
<linearGradient id="paint2_linear_188_6296" x1="324.966" y1="-1004.2" x2="-651.672" y2="463.689" gradientUnits="userSpaceOnUse">
<stop offset="0.395833" stop-color="#ECF0F5"/>
<stop offset="0.973958" stop-color="#ECF0F5" stop-opacity="0"/>
</linearGradient>
<linearGradient id="paint3_linear_188_6296" x1="339.63" y1="-999.803" x2="-637.007" y2="468.087" gradientUnits="userSpaceOnUse">
<stop offset="0.395833" stop-color="#ECF0F5"/>
<stop offset="0.973958" stop-color="#ECF0F5" stop-opacity="0"/>
</linearGradient>
<linearGradient id="paint4_linear_188_6296" x1="354.295" y1="-995.403" x2="-622.343" y2="472.486" gradientUnits="userSpaceOnUse">
<stop offset="0.395833" stop-color="#ECF0F5"/>
<stop offset="0.973958" stop-color="#ECF0F5" stop-opacity="0"/>
</linearGradient>
<linearGradient id="paint5_linear_188_6296" x1="368.959" y1="-991.004" x2="-607.679" y2="476.886" gradientUnits="userSpaceOnUse">
<stop offset="0.395833" stop-color="#ECF0F5"/>
<stop offset="0.973958" stop-color="#ECF0F5" stop-opacity="0"/>
</linearGradient>
<linearGradient id="paint6_linear_188_6296" x1="383.623" y1="-986.604" x2="-593.015" y2="481.285" gradientUnits="userSpaceOnUse">
<stop offset="0.395833" stop-color="#ECF0F5"/>
<stop offset="0.973958" stop-color="#ECF0F5" stop-opacity="0"/>
</linearGradient>
<linearGradient id="paint7_linear_188_6296" x1="398.287" y1="-982.205" x2="-578.35" y2="485.685" gradientUnits="userSpaceOnUse">
<stop offset="0.395833" stop-color="#ECF0F5"/>
<stop offset="0.973958" stop-color="#ECF0F5" stop-opacity="0"/>
</linearGradient>
<linearGradient id="paint8_linear_188_6296" x1="412.952" y1="-977.806" x2="-563.686" y2="490.083" gradientUnits="userSpaceOnUse">
<stop offset="0.395833" stop-color="#ECF0F5"/>
<stop offset="0.973958" stop-color="#ECF0F5" stop-opacity="0"/>
</linearGradient>
<linearGradient id="paint9_linear_188_6296" x1="427.616" y1="-973.407" x2="-549.022" y2="494.483" gradientUnits="userSpaceOnUse">
<stop offset="0.395833" stop-color="#ECF0F5"/>
<stop offset="0.973958" stop-color="#ECF0F5" stop-opacity="0"/>
</linearGradient>
<linearGradient id="paint10_linear_188_6296" x1="442.28" y1="-969.007" x2="-534.358" y2="498.882" gradientUnits="userSpaceOnUse">
<stop offset="0.395833" stop-color="#ECF0F5"/>
<stop offset="0.973958" stop-color="#ECF0F5" stop-opacity="0"/>
</linearGradient>
<linearGradient id="paint11_linear_188_6296" x1="456.944" y1="-964.608" x2="-519.693" y2="503.282" gradientUnits="userSpaceOnUse">
<stop offset="0.395833" stop-color="#ECF0F5"/>
<stop offset="0.973958" stop-color="#ECF0F5" stop-opacity="0"/>
</linearGradient>
<linearGradient id="paint12_linear_188_6296" x1="471.608" y1="-960.208" x2="-505.029" y2="507.681" gradientUnits="userSpaceOnUse">
<stop offset="0.395833" stop-color="#ECF0F5"/>
<stop offset="0.973958" stop-color="#ECF0F5" stop-opacity="0"/>
</linearGradient>
<linearGradient id="paint13_linear_188_6296" x1="486.273" y1="-955.81" x2="-490.365" y2="512.08" gradientUnits="userSpaceOnUse">
<stop offset="0.395833" stop-color="#ECF0F5"/>
<stop offset="0.973958" stop-color="#ECF0F5" stop-opacity="0"/>
</linearGradient>
<linearGradient id="paint14_linear_188_6296" x1="500.937" y1="-951.41" x2="-475.701" y2="516.479" gradientUnits="userSpaceOnUse">
<stop offset="0.395833" stop-color="#ECF0F5"/>
<stop offset="0.973958" stop-color="#ECF0F5" stop-opacity="0"/>
</linearGradient>
<linearGradient id="paint15_linear_188_6296" x1="515.601" y1="-947.011" x2="-461.037" y2="520.879" gradientUnits="userSpaceOnUse">
<stop offset="0.395833" stop-color="#ECF0F5"/>
<stop offset="0.973958" stop-color="#ECF0F5" stop-opacity="0"/>
</linearGradient>
<linearGradient id="paint16_linear_188_6296" x1="530.265" y1="-942.611" x2="-446.372" y2="525.278" gradientUnits="userSpaceOnUse">
<stop offset="0.395833" stop-color="#ECF0F5"/>
<stop offset="0.973958" stop-color="#ECF0F5" stop-opacity="0"/>
</linearGradient>
<linearGradient id="paint17_linear_188_6296" x1="544.93" y1="-938.213" x2="-431.708" y2="529.677" gradientUnits="userSpaceOnUse">
<stop offset="0.395833" stop-color="#ECF0F5"/>
<stop offset="0.973958" stop-color="#ECF0F5" stop-opacity="0"/>
</linearGradient>
<linearGradient id="paint18_linear_188_6296" x1="559.594" y1="-933.813" x2="-417.044" y2="534.076" gradientUnits="userSpaceOnUse">
<stop offset="0.395833" stop-color="#ECF0F5"/>
<stop offset="0.973958" stop-color="#ECF0F5" stop-opacity="0"/>
</linearGradient>
<linearGradient id="paint19_linear_188_6296" x1="574.258" y1="-929.414" x2="-402.38" y2="538.476" gradientUnits="userSpaceOnUse">
<stop offset="0.395833" stop-color="#ECF0F5"/>
<stop offset="0.973958" stop-color="#ECF0F5" stop-opacity="0"/>
</linearGradient>
<linearGradient id="paint20_linear_188_6296" x1="588.922" y1="-925.014" x2="-387.715" y2="542.875" gradientUnits="userSpaceOnUse">
<stop offset="0.395833" stop-color="#ECF0F5"/>
<stop offset="0.973958" stop-color="#ECF0F5" stop-opacity="0"/>
</linearGradient>
<linearGradient id="paint21_linear_188_6296" x1="603.587" y1="-920.615" x2="-373.051" y2="547.274" gradientUnits="userSpaceOnUse">
<stop offset="0.395833" stop-color="#ECF0F5"/>
<stop offset="0.973958" stop-color="#ECF0F5" stop-opacity="0"/>
</linearGradient>
<linearGradient id="paint22_linear_188_6296" x1="618.251" y1="-916.217" x2="-358.387" y2="551.673" gradientUnits="userSpaceOnUse">
<stop offset="0.395833" stop-color="#ECF0F5"/>
<stop offset="0.973958" stop-color="#ECF0F5" stop-opacity="0"/>
</linearGradient>
<linearGradient id="paint23_linear_188_6296" x1="632.915" y1="-911.817" x2="-343.723" y2="556.073" gradientUnits="userSpaceOnUse">
<stop offset="0.395833" stop-color="#ECF0F5"/>
<stop offset="0.973958" stop-color="#ECF0F5" stop-opacity="0"/>
</linearGradient>
<linearGradient id="paint24_linear_188_6296" x1="647.579" y1="-907.417" x2="-329.058" y2="560.472" gradientUnits="userSpaceOnUse">
<stop offset="0.395833" stop-color="#ECF0F5"/>
<stop offset="0.973958" stop-color="#ECF0F5" stop-opacity="0"/>
</linearGradient>
<linearGradient id="paint25_linear_188_6296" x1="662.243" y1="-903.018" x2="-314.394" y2="564.871" gradientUnits="userSpaceOnUse">
<stop offset="0.395833" stop-color="#ECF0F5"/>
<stop offset="0.973958" stop-color="#ECF0F5" stop-opacity="0"/>
</linearGradient>
<linearGradient id="paint26_linear_188_6296" x1="676.908" y1="-898.618" x2="-299.73" y2="569.271" gradientUnits="userSpaceOnUse">
<stop offset="0.395833" stop-color="#ECF0F5"/>
<stop offset="0.973958" stop-color="#ECF0F5" stop-opacity="0"/>
</linearGradient>
<linearGradient id="paint27_linear_188_6296" x1="691.572" y1="-894.22" x2="-285.066" y2="573.669" gradientUnits="userSpaceOnUse">
<stop offset="0.395833" stop-color="#ECF0F5"/>
<stop offset="0.973958" stop-color="#ECF0F5" stop-opacity="0"/>
</linearGradient>
<linearGradient id="paint28_linear_188_6296" x1="706.236" y1="-889.821" x2="-270.402" y2="578.069" gradientUnits="userSpaceOnUse">
<stop offset="0.395833" stop-color="#ECF0F5"/>
<stop offset="0.973958" stop-color="#ECF0F5" stop-opacity="0"/>
</linearGradient>
<linearGradient id="paint29_linear_188_6296" x1="720.9" y1="-885.421" x2="-255.737" y2="582.468" gradientUnits="userSpaceOnUse">
<stop offset="0.395833" stop-color="#ECF0F5"/>
<stop offset="0.973958" stop-color="#ECF0F5" stop-opacity="0"/>
</linearGradient>
<linearGradient id="paint30_linear_188_6296" x1="735.565" y1="-881.022" x2="-241.073" y2="586.868" gradientUnits="userSpaceOnUse">
<stop offset="0.395833" stop-color="#ECF0F5"/>
<stop offset="0.973958" stop-color="#ECF0F5" stop-opacity="0"/>
</linearGradient>
<linearGradient id="paint31_linear_188_6296" x1="750.229" y1="-876.622" x2="-226.409" y2="591.267" gradientUnits="userSpaceOnUse">
<stop offset="0.395833" stop-color="#ECF0F5"/>
<stop offset="0.973958" stop-color="#ECF0F5" stop-opacity="0"/>
</linearGradient>
<linearGradient id="paint32_linear_188_6296" x1="764.893" y1="-872.224" x2="-211.745" y2="595.666" gradientUnits="userSpaceOnUse">
<stop offset="0.395833" stop-color="#ECF0F5"/>
<stop offset="0.973958" stop-color="#ECF0F5" stop-opacity="0"/>
</linearGradient>
<linearGradient id="paint33_linear_188_6296" x1="779.557" y1="-867.824" x2="-197.08" y2="600.065" gradientUnits="userSpaceOnUse">
<stop offset="0.395833" stop-color="#ECF0F5"/>
<stop offset="0.973958" stop-color="#ECF0F5" stop-opacity="0"/>
</linearGradient>
<linearGradient id="paint34_linear_188_6296" x1="794.222" y1="-863.425" x2="-182.416" y2="604.465" gradientUnits="userSpaceOnUse">
<stop offset="0.395833" stop-color="#ECF0F5"/>
<stop offset="0.973958" stop-color="#ECF0F5" stop-opacity="0"/>
</linearGradient>
<linearGradient id="paint35_linear_188_6296" x1="808.886" y1="-859.025" x2="-167.752" y2="608.864" gradientUnits="userSpaceOnUse">
<stop offset="0.395833" stop-color="#ECF0F5"/>
<stop offset="0.973958" stop-color="#ECF0F5" stop-opacity="0"/>
</linearGradient>
<linearGradient id="paint36_linear_188_6296" x1="823.55" y1="-854.626" x2="-153.088" y2="613.264" gradientUnits="userSpaceOnUse">
<stop offset="0.395833" stop-color="#ECF0F5"/>
<stop offset="0.973958" stop-color="#ECF0F5" stop-opacity="0"/>
</linearGradient>
<linearGradient id="paint37_linear_188_6296" x1="838.214" y1="-850.227" x2="-138.423" y2="617.662" gradientUnits="userSpaceOnUse">
<stop offset="0.395833" stop-color="#ECF0F5"/>
<stop offset="0.973958" stop-color="#ECF0F5" stop-opacity="0"/>
</linearGradient>
<linearGradient id="paint38_linear_188_6296" x1="852.879" y1="-845.828" x2="-123.759" y2="622.062" gradientUnits="userSpaceOnUse">
<stop offset="0.395833" stop-color="#ECF0F5"/>
<stop offset="0.973958" stop-color="#ECF0F5" stop-opacity="0"/>
</linearGradient>
<linearGradient id="paint39_linear_188_6296" x1="867.543" y1="-841.428" x2="-109.095" y2="626.461" gradientUnits="userSpaceOnUse">
<stop offset="0.395833" stop-color="#ECF0F5"/>
<stop offset="0.973958" stop-color="#ECF0F5" stop-opacity="0"/>
</linearGradient>
<linearGradient id="paint40_linear_188_6296" x1="882.207" y1="-837.029" x2="-94.4306" y2="630.861" gradientUnits="userSpaceOnUse">
<stop offset="0.395833" stop-color="#ECF0F5"/>
<stop offset="0.973958" stop-color="#ECF0F5" stop-opacity="0"/>
</linearGradient>
<linearGradient id="paint41_linear_188_6296" x1="896.871" y1="-832.629" x2="-79.7665" y2="635.26" gradientUnits="userSpaceOnUse">
<stop offset="0.395833" stop-color="#ECF0F5"/>
<stop offset="0.973958" stop-color="#ECF0F5" stop-opacity="0"/>
</linearGradient>
<linearGradient id="paint42_linear_188_6296" x1="911.535" y1="-828.231" x2="-65.1022" y2="639.658" gradientUnits="userSpaceOnUse">
<stop offset="0.395833" stop-color="#ECF0F5"/>
<stop offset="0.973958" stop-color="#ECF0F5" stop-opacity="0"/>
</linearGradient>
<linearGradient id="paint43_linear_188_6296" x1="926.2" y1="-823.831" x2="-50.4381" y2="644.058" gradientUnits="userSpaceOnUse">
<stop offset="0.395833" stop-color="#ECF0F5"/>
<stop offset="0.973958" stop-color="#ECF0F5" stop-opacity="0"/>
</linearGradient>
<linearGradient id="paint44_linear_188_6296" x1="940.864" y1="-819.432" x2="-35.7738" y2="648.458" gradientUnits="userSpaceOnUse">
<stop offset="0.395833" stop-color="#ECF0F5"/>
<stop offset="0.973958" stop-color="#ECF0F5" stop-opacity="0"/>
</linearGradient>
<linearGradient id="paint45_linear_188_6296" x1="955.528" y1="-815.032" x2="-21.1095" y2="652.857" gradientUnits="userSpaceOnUse">
<stop offset="0.395833" stop-color="#ECF0F5"/>
<stop offset="0.973958" stop-color="#ECF0F5" stop-opacity="0"/>
</linearGradient>
<linearGradient id="paint46_linear_188_6296" x1="970.192" y1="-810.634" x2="-6.44547" y2="657.255" gradientUnits="userSpaceOnUse">
<stop offset="0.395833" stop-color="#ECF0F5"/>
<stop offset="0.973958" stop-color="#ECF0F5" stop-opacity="0"/>
</linearGradient>
<linearGradient id="paint47_linear_188_6296" x1="984.857" y1="-806.234" x2="8.21884" y2="661.655" gradientUnits="userSpaceOnUse">
<stop offset="0.395833" stop-color="#ECF0F5"/>
<stop offset="0.973958" stop-color="#ECF0F5" stop-opacity="0"/>
</linearGradient>
<linearGradient id="paint48_linear_188_6296" x1="999.521" y1="-801.835" x2="22.8831" y2="666.054" gradientUnits="userSpaceOnUse">
<stop offset="0.395833" stop-color="#ECF0F5"/>
<stop offset="0.973958" stop-color="#ECF0F5" stop-opacity="0"/>
</linearGradient>
<linearGradient id="paint49_linear_188_6296" x1="1014.19" y1="-797.436" x2="37.5474" y2="670.454" gradientUnits="userSpaceOnUse">
<stop offset="0.395833" stop-color="#ECF0F5"/>
<stop offset="0.973958" stop-color="#ECF0F5" stop-opacity="0"/>
</linearGradient>
<linearGradient id="paint50_linear_188_6296" x1="1028.85" y1="-793.036" x2="52.2115" y2="674.854" gradientUnits="userSpaceOnUse">
<stop offset="0.395833" stop-color="#ECF0F5"/>
<stop offset="0.973958" stop-color="#ECF0F5" stop-opacity="0"/>
</linearGradient>
<linearGradient id="paint51_linear_188_6296" x1="1043.51" y1="-788.638" x2="66.8761" y2="679.252" gradientUnits="userSpaceOnUse">
<stop offset="0.395833" stop-color="#ECF0F5"/>
<stop offset="0.973958" stop-color="#ECF0F5" stop-opacity="0"/>
</linearGradient>
<linearGradient id="paint52_linear_188_6296" x1="1058.18" y1="-784.238" x2="81.5401" y2="683.651" gradientUnits="userSpaceOnUse">
<stop offset="0.395833" stop-color="#ECF0F5"/>
<stop offset="0.973958" stop-color="#ECF0F5" stop-opacity="0"/>
</linearGradient>
<linearGradient id="paint53_linear_188_6296" x1="1072.84" y1="-779.839" x2="96.2044" y2="688.051" gradientUnits="userSpaceOnUse">
<stop offset="0.395833" stop-color="#ECF0F5"/>
<stop offset="0.973958" stop-color="#ECF0F5" stop-opacity="0"/>
</linearGradient>
<linearGradient id="paint54_linear_188_6296" x1="1087.51" y1="-775.439" x2="110.868" y2="692.45" gradientUnits="userSpaceOnUse">
<stop offset="0.395833" stop-color="#ECF0F5"/>
<stop offset="0.973958" stop-color="#ECF0F5" stop-opacity="0"/>
</linearGradient>
<linearGradient id="paint55_linear_188_6296" x1="1102.17" y1="-771.04" x2="125.533" y2="696.85" gradientUnits="userSpaceOnUse">
<stop offset="0.395833" stop-color="#ECF0F5"/>
<stop offset="0.973958" stop-color="#ECF0F5" stop-opacity="0"/>
</linearGradient>
<linearGradient id="paint56_linear_188_6296" x1="1116.83" y1="-766.641" x2="140.197" y2="701.248" gradientUnits="userSpaceOnUse">
<stop offset="0.395833" stop-color="#ECF0F5"/>
<stop offset="0.973958" stop-color="#ECF0F5" stop-opacity="0"/>
</linearGradient>
<linearGradient id="paint57_linear_188_6296" x1="1131.5" y1="-762.242" x2="154.861" y2="705.648" gradientUnits="userSpaceOnUse">
<stop offset="0.395833" stop-color="#ECF0F5"/>
<stop offset="0.973958" stop-color="#ECF0F5" stop-opacity="0"/>
</linearGradient>
<linearGradient id="paint58_linear_188_6296" x1="1146.16" y1="-757.842" x2="169.525" y2="710.047" gradientUnits="userSpaceOnUse">
<stop offset="0.395833" stop-color="#ECF0F5"/>
<stop offset="0.973958" stop-color="#ECF0F5" stop-opacity="0"/>
</linearGradient>
<linearGradient id="paint59_linear_188_6296" x1="1160.83" y1="-753.443" x2="184.19" y2="714.447" gradientUnits="userSpaceOnUse">
<stop offset="0.395833" stop-color="#ECF0F5"/>
<stop offset="0.973958" stop-color="#ECF0F5" stop-opacity="0"/>
</linearGradient>
<linearGradient id="paint60_linear_188_6296" x1="1175.49" y1="-749.043" x2="198.854" y2="718.846" gradientUnits="userSpaceOnUse">
<stop offset="0.395833" stop-color="#ECF0F5"/>
<stop offset="0.973958" stop-color="#ECF0F5" stop-opacity="0"/>
</linearGradient>
<linearGradient id="paint61_linear_188_6296" x1="1190.16" y1="-744.645" x2="213.518" y2="723.245" gradientUnits="userSpaceOnUse">
<stop offset="0.395833" stop-color="#ECF0F5"/>
<stop offset="0.973958" stop-color="#ECF0F5" stop-opacity="0"/>
</linearGradient>
<linearGradient id="paint62_linear_188_6296" x1="1204.82" y1="-740.245" x2="228.182" y2="727.644" gradientUnits="userSpaceOnUse">
<stop offset="0.395833" stop-color="#ECF0F5"/>
<stop offset="0.973958" stop-color="#ECF0F5" stop-opacity="0"/>
</linearGradient>
<linearGradient id="paint63_linear_188_6296" x1="1219.48" y1="-735.846" x2="242.847" y2="732.044" gradientUnits="userSpaceOnUse">
<stop offset="0.395833" stop-color="#ECF0F5"/>
<stop offset="0.973958" stop-color="#ECF0F5" stop-opacity="0"/>
</linearGradient>
<linearGradient id="paint64_linear_188_6296" x1="1234.15" y1="-731.446" x2="257.511" y2="736.443" gradientUnits="userSpaceOnUse">
<stop offset="0.395833" stop-color="#ECF0F5"/>
<stop offset="0.973958" stop-color="#ECF0F5" stop-opacity="0"/>
</linearGradient>
<linearGradient id="paint65_linear_188_6296" x1="1248.81" y1="-727.047" x2="272.175" y2="740.843" gradientUnits="userSpaceOnUse">
<stop offset="0.395833" stop-color="#ECF0F5"/>
<stop offset="0.973958" stop-color="#ECF0F5" stop-opacity="0"/>
</linearGradient>
<linearGradient id="paint66_linear_188_6296" x1="1263.48" y1="-722.648" x2="286.839" y2="745.241" gradientUnits="userSpaceOnUse">
<stop offset="0.395833" stop-color="#ECF0F5"/>
<stop offset="0.973958" stop-color="#ECF0F5" stop-opacity="0"/>
</linearGradient>
<linearGradient id="paint67_linear_188_6296" x1="1278.14" y1="-718.249" x2="301.504" y2="749.641" gradientUnits="userSpaceOnUse">
<stop offset="0.395833" stop-color="#ECF0F5"/>
<stop offset="0.973958" stop-color="#ECF0F5" stop-opacity="0"/>
</linearGradient>
<linearGradient id="paint68_linear_188_6296" x1="1292.81" y1="-713.849" x2="316.168" y2="754.04" gradientUnits="userSpaceOnUse">
<stop offset="0.395833" stop-color="#ECF0F5"/>
<stop offset="0.973958" stop-color="#ECF0F5" stop-opacity="0"/>
</linearGradient>
<linearGradient id="paint69_linear_188_6296" x1="1307.47" y1="-709.45" x2="330.832" y2="758.439" gradientUnits="userSpaceOnUse">
<stop offset="0.395833" stop-color="#ECF0F5"/>
<stop offset="0.973958" stop-color="#ECF0F5" stop-opacity="0"/>
</linearGradient>
<linearGradient id="paint70_linear_188_6296" x1="1322.13" y1="-705.05" x2="345.496" y2="762.839" gradientUnits="userSpaceOnUse">
<stop offset="0.395833" stop-color="#ECF0F5"/>
<stop offset="0.973958" stop-color="#ECF0F5" stop-opacity="0"/>
</linearGradient>
<linearGradient id="paint71_linear_188_6296" x1="1336.8" y1="-700.652" x2="360.16" y2="767.238" gradientUnits="userSpaceOnUse">
<stop offset="0.395833" stop-color="#ECF0F5"/>
<stop offset="0.973958" stop-color="#ECF0F5" stop-opacity="0"/>
</linearGradient>
<linearGradient id="paint72_linear_188_6296" x1="1351.46" y1="-696.252" x2="374.825" y2="771.637" gradientUnits="userSpaceOnUse">
<stop offset="0.395833" stop-color="#ECF0F5"/>
<stop offset="0.973958" stop-color="#ECF0F5" stop-opacity="0"/>
</linearGradient>
<linearGradient id="paint73_linear_188_6296" x1="1366.13" y1="-691.853" x2="389.489" y2="776.036" gradientUnits="userSpaceOnUse">
<stop offset="0.395833" stop-color="#ECF0F5"/>
<stop offset="0.973958" stop-color="#ECF0F5" stop-opacity="0"/>
</linearGradient>
<linearGradient id="paint74_linear_188_6296" x1="1380.79" y1="-687.453" x2="404.153" y2="780.436" gradientUnits="userSpaceOnUse">
<stop offset="0.395833" stop-color="#ECF0F5"/>
<stop offset="0.973958" stop-color="#ECF0F5" stop-opacity="0"/>
</linearGradient>
<linearGradient id="paint75_linear_188_6296" x1="1395.46" y1="-683.055" x2="418.817" y2="784.834" gradientUnits="userSpaceOnUse">
<stop offset="0.395833" stop-color="#ECF0F5"/>
<stop offset="0.973958" stop-color="#ECF0F5" stop-opacity="0"/>
</linearGradient>
<linearGradient id="paint76_linear_188_6296" x1="1410.12" y1="-678.656" x2="433.482" y2="789.234" gradientUnits="userSpaceOnUse">
<stop offset="0.395833" stop-color="#ECF0F5"/>
<stop offset="0.973958" stop-color="#ECF0F5" stop-opacity="0"/>
</linearGradient>
<linearGradient id="paint77_linear_188_6296" x1="1424.78" y1="-674.256" x2="448.146" y2="793.633" gradientUnits="userSpaceOnUse">
<stop offset="0.395833" stop-color="#ECF0F5"/>
<stop offset="0.973958" stop-color="#ECF0F5" stop-opacity="0"/>
</linearGradient>
<linearGradient id="paint78_linear_188_6296" x1="1439.45" y1="-669.856" x2="462.81" y2="798.033" gradientUnits="userSpaceOnUse">
<stop offset="0.395833" stop-color="#ECF0F5"/>
<stop offset="0.973958" stop-color="#ECF0F5" stop-opacity="0"/>
</linearGradient>
<linearGradient id="paint79_linear_188_6296" x1="1454.11" y1="-665.457" x2="477.474" y2="802.432" gradientUnits="userSpaceOnUse">
<stop offset="0.395833" stop-color="#ECF0F5"/>
<stop offset="0.973958" stop-color="#ECF0F5" stop-opacity="0"/>
</linearGradient>
<linearGradient id="paint80_linear_188_6296" x1="1468.78" y1="-661.059" x2="492.139" y2="806.831" gradientUnits="userSpaceOnUse">
<stop offset="0.395833" stop-color="#ECF0F5"/>
<stop offset="0.973958" stop-color="#ECF0F5" stop-opacity="0"/>
</linearGradient>
<linearGradient id="paint81_linear_188_6296" x1="1483.44" y1="-656.659" x2="506.803" y2="811.23" gradientUnits="userSpaceOnUse">
<stop offset="0.395833" stop-color="#ECF0F5"/>
<stop offset="0.973958" stop-color="#ECF0F5" stop-opacity="0"/>
</linearGradient>
<linearGradient id="paint82_linear_188_6296" x1="1498.1" y1="-652.26" x2="521.467" y2="815.63" gradientUnits="userSpaceOnUse">
<stop offset="0.395833" stop-color="#ECF0F5"/>
<stop offset="0.973958" stop-color="#ECF0F5" stop-opacity="0"/>
</linearGradient>
<linearGradient id="paint83_linear_188_6296" x1="1512.77" y1="-647.86" x2="536.131" y2="820.029" gradientUnits="userSpaceOnUse">
<stop offset="0.395833" stop-color="#ECF0F5"/>
<stop offset="0.973958" stop-color="#ECF0F5" stop-opacity="0"/>
</linearGradient>
<linearGradient id="paint84_linear_188_6296" x1="1527.43" y1="-643.461" x2="550.795" y2="824.429" gradientUnits="userSpaceOnUse">
<stop offset="0.395833" stop-color="#ECF0F5"/>
<stop offset="0.973958" stop-color="#ECF0F5" stop-opacity="0"/>
</linearGradient>
<linearGradient id="paint85_linear_188_6296" x1="1542.1" y1="-639.062" x2="565.46" y2="828.827" gradientUnits="userSpaceOnUse">
<stop offset="0.395833" stop-color="#ECF0F5"/>
<stop offset="0.973958" stop-color="#ECF0F5" stop-opacity="0"/>
</linearGradient>
<linearGradient id="paint86_linear_188_6296" x1="1556.76" y1="-634.663" x2="580.124" y2="833.227" gradientUnits="userSpaceOnUse">
<stop offset="0.395833" stop-color="#ECF0F5"/>
<stop offset="0.973958" stop-color="#ECF0F5" stop-opacity="0"/>
</linearGradient>
<linearGradient id="paint87_linear_188_6296" x1="1571.43" y1="-630.263" x2="594.788" y2="837.626" gradientUnits="userSpaceOnUse">
<stop offset="0.395833" stop-color="#ECF0F5"/>
<stop offset="0.973958" stop-color="#ECF0F5" stop-opacity="0"/>
</linearGradient>
<linearGradient id="paint88_linear_188_6296" x1="1586.09" y1="-625.864" x2="609.452" y2="842.026" gradientUnits="userSpaceOnUse">
<stop offset="0.395833" stop-color="#ECF0F5"/>
<stop offset="0.973958" stop-color="#ECF0F5" stop-opacity="0"/>
</linearGradient>
<linearGradient id="paint89_linear_188_6296" x1="1600.75" y1="-621.464" x2="624.117" y2="846.425" gradientUnits="userSpaceOnUse">
<stop offset="0.395833" stop-color="#ECF0F5"/>
<stop offset="0.973958" stop-color="#ECF0F5" stop-opacity="0"/>
</linearGradient>
<linearGradient id="paint90_linear_188_6296" x1="1615.42" y1="-617.066" x2="638.781" y2="850.824" gradientUnits="userSpaceOnUse">
<stop offset="0.395833" stop-color="#ECF0F5"/>
<stop offset="0.973958" stop-color="#ECF0F5" stop-opacity="0"/>
</linearGradient>
<linearGradient id="paint91_linear_188_6296" x1="1630.08" y1="-612.666" x2="653.445" y2="855.223" gradientUnits="userSpaceOnUse">
<stop offset="0.395833" stop-color="#ECF0F5"/>
<stop offset="0.973958" stop-color="#ECF0F5" stop-opacity="0"/>
</linearGradient>
<linearGradient id="paint92_linear_188_6296" x1="1644.75" y1="-608.267" x2="668.109" y2="859.623" gradientUnits="userSpaceOnUse">
<stop offset="0.395833" stop-color="#ECF0F5"/>
<stop offset="0.973958" stop-color="#ECF0F5" stop-opacity="0"/>
</linearGradient>
<linearGradient id="paint93_linear_188_6296" x1="1659.41" y1="-603.867" x2="682.774" y2="864.022" gradientUnits="userSpaceOnUse">
<stop offset="0.395833" stop-color="#ECF0F5"/>
<stop offset="0.973958" stop-color="#ECF0F5" stop-opacity="0"/>
</linearGradient>
<linearGradient id="paint94_linear_188_6296" x1="1674.08" y1="-599.469" x2="697.438" y2="868.42" gradientUnits="userSpaceOnUse">
<stop offset="0.395833" stop-color="#ECF0F5"/>
<stop offset="0.973958" stop-color="#ECF0F5" stop-opacity="0"/>
</linearGradient>
<linearGradient id="paint95_linear_188_6296" x1="1688.74" y1="-595.069" x2="712.102" y2="872.82" gradientUnits="userSpaceOnUse">
<stop offset="0.395833" stop-color="#ECF0F5"/>
<stop offset="0.973958" stop-color="#ECF0F5" stop-opacity="0"/>
</linearGradient>
<linearGradient id="paint96_linear_188_6296" x1="1703.4" y1="-590.67" x2="726.766" y2="877.22" gradientUnits="userSpaceOnUse">
<stop offset="0.395833" stop-color="#ECF0F5"/>
<stop offset="0.973958" stop-color="#ECF0F5" stop-opacity="0"/>
</linearGradient>
<linearGradient id="paint97_linear_188_6296" x1="1718.07" y1="-586.271" x2="741.431" y2="881.619" gradientUnits="userSpaceOnUse">
<stop offset="0.395833" stop-color="#ECF0F5"/>
<stop offset="0.973958" stop-color="#ECF0F5" stop-opacity="0"/>
</linearGradient>
<linearGradient id="paint98_linear_188_6296" x1="1732.73" y1="-581.871" x2="756.095" y2="886.018" gradientUnits="userSpaceOnUse">
<stop offset="0.395833" stop-color="#ECF0F5"/>
<stop offset="0.973958" stop-color="#ECF0F5" stop-opacity="0"/>
</linearGradient>
<linearGradient id="paint99_linear_188_6296" x1="1747.4" y1="-577.473" x2="770.759" y2="890.417" gradientUnits="userSpaceOnUse">
<stop offset="0.395833" stop-color="#ECF0F5"/>
<stop offset="0.973958" stop-color="#ECF0F5" stop-opacity="0"/>
</linearGradient>
<linearGradient id="paint100_linear_188_6296" x1="1762.06" y1="-573.073" x2="785.423" y2="894.816" gradientUnits="userSpaceOnUse">
<stop offset="0.395833" stop-color="#ECF0F5"/>
<stop offset="0.973958" stop-color="#ECF0F5" stop-opacity="0"/>
</linearGradient>
<linearGradient id="paint101_linear_188_6296" x1="1776.72" y1="-568.674" x2="800.087" y2="899.216" gradientUnits="userSpaceOnUse">
<stop offset="0.395833" stop-color="#ECF0F5"/>
<stop offset="0.973958" stop-color="#ECF0F5" stop-opacity="0"/>
</linearGradient>
<linearGradient id="paint102_linear_188_6296" x1="1791.39" y1="-564.274" x2="814.752" y2="903.615" gradientUnits="userSpaceOnUse">
<stop offset="0.395833" stop-color="#ECF0F5"/>
<stop offset="0.973958" stop-color="#ECF0F5" stop-opacity="0"/>
</linearGradient>
<linearGradient id="paint103_linear_188_6296" x1="1806.05" y1="-559.875" x2="829.416" y2="908.015" gradientUnits="userSpaceOnUse">
<stop offset="0.395833" stop-color="#ECF0F5"/>
<stop offset="0.973958" stop-color="#ECF0F5" stop-opacity="0"/>
</linearGradient>
<linearGradient id="paint104_linear_188_6296" x1="1820.72" y1="-555.476" x2="844.08" y2="912.413" gradientUnits="userSpaceOnUse">
<stop offset="0.395833" stop-color="#ECF0F5"/>
<stop offset="0.973958" stop-color="#ECF0F5" stop-opacity="0"/>
</linearGradient>
<linearGradient id="paint105_linear_188_6296" x1="1835.38" y1="-551.077" x2="858.744" y2="916.813" gradientUnits="userSpaceOnUse">
<stop offset="0.395833" stop-color="#ECF0F5"/>
<stop offset="0.973958" stop-color="#ECF0F5" stop-opacity="0"/>
</linearGradient>
<linearGradient id="paint106_linear_188_6296" x1="1850.05" y1="-546.677" x2="873.409" y2="921.212" gradientUnits="userSpaceOnUse">
<stop offset="0.395833" stop-color="#ECF0F5"/>
<stop offset="0.973958" stop-color="#ECF0F5" stop-opacity="0"/>
</linearGradient>
<linearGradient id="paint107_linear_188_6296" x1="1864.71" y1="-542.278" x2="888.073" y2="925.612" gradientUnits="userSpaceOnUse">
<stop offset="0.395833" stop-color="#ECF0F5"/>
<stop offset="0.973958" stop-color="#ECF0F5" stop-opacity="0"/>
</linearGradient>
<linearGradient id="paint108_linear_188_6296" x1="1879.37" y1="-537.878" x2="902.737" y2="930.011" gradientUnits="userSpaceOnUse">
<stop offset="0.395833" stop-color="#ECF0F5"/>
<stop offset="0.973958" stop-color="#ECF0F5" stop-opacity="0"/>
</linearGradient>
<linearGradient id="paint109_linear_188_6296" x1="1894.04" y1="-533.48" x2="917.401" y2="934.41" gradientUnits="userSpaceOnUse">
<stop offset="0.395833" stop-color="#ECF0F5"/>
<stop offset="0.973958" stop-color="#ECF0F5" stop-opacity="0"/>
</linearGradient>
<linearGradient id="paint110_linear_188_6296" x1="1908.7" y1="-529.08" x2="932.066" y2="938.809" gradientUnits="userSpaceOnUse">
<stop offset="0.395833" stop-color="#ECF0F5"/>
<stop offset="0.973958" stop-color="#ECF0F5" stop-opacity="0"/>
</linearGradient>
<linearGradient id="paint111_linear_188_6296" x1="1923.37" y1="-524.681" x2="946.73" y2="943.209" gradientUnits="userSpaceOnUse">
<stop offset="0.395833" stop-color="#ECF0F5"/>
<stop offset="0.973958" stop-color="#ECF0F5" stop-opacity="0"/>
</linearGradient>
<linearGradient id="paint112_linear_188_6296" x1="1938.03" y1="-520.281" x2="961.394" y2="947.608" gradientUnits="userSpaceOnUse">
<stop offset="0.395833" stop-color="#ECF0F5"/>
<stop offset="0.973958" stop-color="#ECF0F5" stop-opacity="0"/>
</linearGradient>
<linearGradient id="paint113_linear_188_6296" x1="1952.7" y1="-515.882" x2="976.058" y2="952.008" gradientUnits="userSpaceOnUse">
<stop offset="0.395833" stop-color="#ECF0F5"/>
<stop offset="0.973958" stop-color="#ECF0F5" stop-opacity="0"/>
</linearGradient>
<linearGradient id="paint114_linear_188_6296" x1="1967.36" y1="-511.483" x2="990.722" y2="956.406" gradientUnits="userSpaceOnUse">
<stop offset="0.395833" stop-color="#ECF0F5"/>
<stop offset="0.973958" stop-color="#ECF0F5" stop-opacity="0"/>
</linearGradient>
<linearGradient id="paint115_linear_188_6296" x1="1982.02" y1="-507.084" x2="1005.39" y2="960.806" gradientUnits="userSpaceOnUse">
<stop offset="0.395833" stop-color="#ECF0F5"/>
<stop offset="0.973958" stop-color="#ECF0F5" stop-opacity="0"/>
</linearGradient>
<linearGradient id="paint116_linear_188_6296" x1="1996.69" y1="-502.684" x2="1020.05" y2="965.205" gradientUnits="userSpaceOnUse">
<stop offset="0.395833" stop-color="#ECF0F5"/>
<stop offset="0.973958" stop-color="#ECF0F5" stop-opacity="0"/>
</linearGradient>
<linearGradient id="paint117_linear_188_6296" x1="2011.35" y1="-498.285" x2="1034.71" y2="969.605" gradientUnits="userSpaceOnUse">
<stop offset="0.395833" stop-color="#ECF0F5"/>
<stop offset="0.973958" stop-color="#ECF0F5" stop-opacity="0"/>
</linearGradient>
<linearGradient id="paint118_linear_188_6296" x1="2026.02" y1="-493.885" x2="1049.38" y2="974.004" gradientUnits="userSpaceOnUse">
<stop offset="0.395833" stop-color="#ECF0F5"/>
<stop offset="0.973958" stop-color="#ECF0F5" stop-opacity="0"/>
</linearGradient>
<linearGradient id="paint119_linear_188_6296" x1="2040.68" y1="-489.487" x2="1064.04" y2="978.403" gradientUnits="userSpaceOnUse">
<stop offset="0.395833" stop-color="#ECF0F5"/>
<stop offset="0.973958" stop-color="#ECF0F5" stop-opacity="0"/>
</linearGradient>
<linearGradient id="paint120_linear_188_6296" x1="2055.35" y1="-485.087" x2="1078.71" y2="982.802" gradientUnits="userSpaceOnUse">
<stop offset="0.395833" stop-color="#ECF0F5"/>
<stop offset="0.973958" stop-color="#ECF0F5" stop-opacity="0"/>
</linearGradient>
<linearGradient id="paint121_linear_188_6296" x1="2070.01" y1="-480.688" x2="1093.37" y2="987.201" gradientUnits="userSpaceOnUse">
<stop offset="0.395833" stop-color="#ECF0F5"/>
<stop offset="0.973958" stop-color="#ECF0F5" stop-opacity="0"/>
</linearGradient>
<linearGradient id="paint122_linear_188_6296" x1="2084.67" y1="-476.288" x2="1108.04" y2="991.601" gradientUnits="userSpaceOnUse">
<stop offset="0.395833" stop-color="#ECF0F5"/>
<stop offset="0.973958" stop-color="#ECF0F5" stop-opacity="0"/>
</linearGradient>
<linearGradient id="paint123_linear_188_6296" x1="2099.34" y1="-471.89" x2="1122.7" y2="995.999" gradientUnits="userSpaceOnUse">
<stop offset="0.395833" stop-color="#ECF0F5"/>
<stop offset="0.973958" stop-color="#ECF0F5" stop-opacity="0"/>
</linearGradient>
<linearGradient id="paint124_linear_188_6296" x1="2114" y1="-467.49" x2="1137.36" y2="1000.4" gradientUnits="userSpaceOnUse">
<stop offset="0.395833" stop-color="#ECF0F5"/>
<stop offset="0.973958" stop-color="#ECF0F5" stop-opacity="0"/>
</linearGradient>
<linearGradient id="paint125_linear_188_6296" x1="2128.67" y1="-463.091" x2="1152.03" y2="1004.8" gradientUnits="userSpaceOnUse">
<stop offset="0.395833" stop-color="#ECF0F5"/>
<stop offset="0.973958" stop-color="#ECF0F5" stop-opacity="0"/>
</linearGradient>
<linearGradient id="paint126_linear_188_6296" x1="2143.33" y1="-458.692" x2="1166.69" y2="1009.2" gradientUnits="userSpaceOnUse">
<stop offset="0.395833" stop-color="#ECF0F5"/>
<stop offset="0.973958" stop-color="#ECF0F5" stop-opacity="0"/>
</linearGradient>
<linearGradient id="paint127_linear_188_6296" x1="2158" y1="-454.292" x2="1181.36" y2="1013.6" gradientUnits="userSpaceOnUse">
<stop offset="0.395833" stop-color="#ECF0F5"/>
<stop offset="0.973958" stop-color="#ECF0F5" stop-opacity="0"/>
</linearGradient>
<linearGradient id="paint128_linear_188_6296" x1="2172.66" y1="-449.894" x2="1196.02" y2="1018" gradientUnits="userSpaceOnUse">
<stop offset="0.395833" stop-color="#ECF0F5"/>
<stop offset="0.973958" stop-color="#ECF0F5" stop-opacity="0"/>
</linearGradient>
<linearGradient id="paint129_linear_188_6296" x1="2187.32" y1="-445.494" x2="1210.69" y2="1022.4" gradientUnits="userSpaceOnUse">
<stop offset="0.395833" stop-color="#ECF0F5"/>
<stop offset="0.973958" stop-color="#ECF0F5" stop-opacity="0"/>
</linearGradient>
<linearGradient id="paint130_linear_188_6296" x1="2201.99" y1="-441.095" x2="1225.35" y2="1026.79" gradientUnits="userSpaceOnUse">
<stop offset="0.395833" stop-color="#ECF0F5"/>
<stop offset="0.973958" stop-color="#ECF0F5" stop-opacity="0"/>
</linearGradient>
<linearGradient id="paint131_linear_188_6296" x1="2216.65" y1="-436.695" x2="1240.01" y2="1031.19" gradientUnits="userSpaceOnUse">
<stop offset="0.395833" stop-color="#ECF0F5"/>
<stop offset="0.973958" stop-color="#ECF0F5" stop-opacity="0"/>
</linearGradient>
<linearGradient id="paint132_linear_188_6296" x1="2231.32" y1="-432.296" x2="1254.68" y2="1035.59" gradientUnits="userSpaceOnUse">
<stop offset="0.395833" stop-color="#ECF0F5"/>
<stop offset="0.973958" stop-color="#ECF0F5" stop-opacity="0"/>
</linearGradient>
<linearGradient id="paint133_linear_188_6296" x1="2245.98" y1="-427.897" x2="1269.34" y2="1039.99" gradientUnits="userSpaceOnUse">
<stop offset="0.395833" stop-color="#ECF0F5"/>
<stop offset="0.973958" stop-color="#ECF0F5" stop-opacity="0"/>
</linearGradient>
<linearGradient id="paint134_linear_188_6296" x1="2260.64" y1="-423.498" x2="1284.01" y2="1044.39" gradientUnits="userSpaceOnUse">
<stop offset="0.395833" stop-color="#ECF0F5"/>
<stop offset="0.973958" stop-color="#ECF0F5" stop-opacity="0"/>
</linearGradient>
<linearGradient id="paint135_linear_188_6296" x1="2275.31" y1="-419.098" x2="1298.67" y2="1048.79" gradientUnits="userSpaceOnUse">
<stop offset="0.395833" stop-color="#ECF0F5"/>
<stop offset="0.973958" stop-color="#ECF0F5" stop-opacity="0"/>
</linearGradient>
<linearGradient id="paint136_linear_188_6296" x1="2289.97" y1="-414.699" x2="1313.34" y2="1053.19" gradientUnits="userSpaceOnUse">
<stop offset="0.395833" stop-color="#ECF0F5"/>
<stop offset="0.973958" stop-color="#ECF0F5" stop-opacity="0"/>
</linearGradient>
<linearGradient id="paint137_linear_188_6296" x1="2304.64" y1="-410.299" x2="1328" y2="1057.59" gradientUnits="userSpaceOnUse">
<stop offset="0.395833" stop-color="#ECF0F5"/>
<stop offset="0.973958" stop-color="#ECF0F5" stop-opacity="0"/>
</linearGradient>
<linearGradient id="paint138_linear_188_6296" x1="2319.3" y1="-405.901" x2="1342.66" y2="1061.99" gradientUnits="userSpaceOnUse">
<stop offset="0.395833" stop-color="#ECF0F5"/>
<stop offset="0.973958" stop-color="#ECF0F5" stop-opacity="0"/>
</linearGradient>
<linearGradient id="paint139_linear_188_6296" x1="2333.97" y1="-401.501" x2="1357.33" y2="1066.39" gradientUnits="userSpaceOnUse">
<stop offset="0.395833" stop-color="#ECF0F5"/>
<stop offset="0.973958" stop-color="#ECF0F5" stop-opacity="0"/>
</linearGradient>
<linearGradient id="paint140_linear_188_6296" x1="2348.63" y1="-397.102" x2="1371.99" y2="1070.79" gradientUnits="userSpaceOnUse">
<stop offset="0.395833" stop-color="#ECF0F5"/>
<stop offset="0.973958" stop-color="#ECF0F5" stop-opacity="0"/>
</linearGradient>
<linearGradient id="paint141_linear_188_6296" x1="2363.29" y1="-392.702" x2="1386.66" y2="1075.19" gradientUnits="userSpaceOnUse">
<stop offset="0.395833" stop-color="#ECF0F5"/>
<stop offset="0.973958" stop-color="#ECF0F5" stop-opacity="0"/>
</linearGradient>
<linearGradient id="paint142_linear_188_6296" x1="2377.96" y1="-388.303" x2="1401.32" y2="1079.59" gradientUnits="userSpaceOnUse">
<stop offset="0.395833" stop-color="#ECF0F5"/>
<stop offset="0.973958" stop-color="#ECF0F5" stop-opacity="0"/>
</linearGradient>
<linearGradient id="paint143_linear_188_6296" x1="2392.62" y1="-383.904" x2="1415.98" y2="1083.99" gradientUnits="userSpaceOnUse">
<stop offset="0.395833" stop-color="#ECF0F5"/>
<stop offset="0.973958" stop-color="#ECF0F5" stop-opacity="0"/>
</linearGradient>
<linearGradient id="paint144_linear_188_6296" x1="2407.29" y1="-379.505" x2="1430.65" y2="1088.38" gradientUnits="userSpaceOnUse">
<stop offset="0.395833" stop-color="#ECF0F5"/>
<stop offset="0.973958" stop-color="#ECF0F5" stop-opacity="0"/>
</linearGradient>
<linearGradient id="paint145_linear_188_6296" x1="2421.95" y1="-375.105" x2="1445.31" y2="1092.78" gradientUnits="userSpaceOnUse">
<stop offset="0.395833" stop-color="#ECF0F5"/>
<stop offset="0.973958" stop-color="#ECF0F5" stop-opacity="0"/>
</linearGradient>
<linearGradient id="paint146_linear_188_6296" x1="2436.62" y1="-370.706" x2="1459.98" y2="1097.18" gradientUnits="userSpaceOnUse">
<stop offset="0.395833" stop-color="#ECF0F5"/>
<stop offset="0.973958" stop-color="#ECF0F5" stop-opacity="0"/>
</linearGradient>
<linearGradient id="paint147_linear_188_6296" x1="2451.28" y1="-366.306" x2="1474.64" y2="1101.58" gradientUnits="userSpaceOnUse">
<stop offset="0.395833" stop-color="#ECF0F5"/>
<stop offset="0.973958" stop-color="#ECF0F5" stop-opacity="0"/>
</linearGradient>
<linearGradient id="paint148_linear_188_6296" x1="2465.94" y1="-361.908" x2="1489.31" y2="1105.98" gradientUnits="userSpaceOnUse">
<stop offset="0.395833" stop-color="#ECF0F5"/>
<stop offset="0.973958" stop-color="#ECF0F5" stop-opacity="0"/>
</linearGradient>
<linearGradient id="paint149_linear_188_6296" x1="2480.61" y1="-357.509" x2="1503.97" y2="1110.38" gradientUnits="userSpaceOnUse">
<stop offset="0.395833" stop-color="#ECF0F5"/>
<stop offset="0.973958" stop-color="#ECF0F5" stop-opacity="0"/>
</linearGradient>
<linearGradient id="paint150_linear_188_6296" x1="800" y1="386" x2="800" y2="441" gradientUnits="userSpaceOnUse">
<stop stop-color="#091729" stop-opacity="0"/>
<stop offset="1" stop-color="#091729"/>
</linearGradient>
<clipPath id="clip0_188_6296">
<rect width="1512" height="441" fill="white"/>
</clipPath>
</defs>
</svg>
