<svg xmlns="http://www.w3.org/2000/svg" width="64" height="64" fill="none"><path fill="#090909" fill-rule="evenodd" d="M51.177 36.906a4.6 4.6 0 0 1-.767-.25 1.8 1.8 0 0 1-.423-.263.32.32 0 0 1-.105-.278c.12-1.255-.012-2.362.107-3.606.495-5.047 3.639-3.448 6.46-4.273 1.62-.46 3.241-1.367 3.833-3.15a.87.87 0 0 0-.19-.841 36.4 36.4 0 0 0-6.118-5.602c-7.454-5.357-17.142-7.581-26.038-6.28a.468.468 0 0 0-.33.715 13.8 13.8 0 0 0 4.318 4.284c.31.194.185.612-.17.532-.836-.19-1.91-.558-2.92-1.278a.35.35 0 0 0-.334-.042c-.452.182-1.104.444-1.643.679a.454.454 0 0 0-.118.762c4.469 3.91 10.97 4.504 16.06 1.375.31-.19.806.201.706.554-.16.564-.347 1.34-.546 2.396-1.262 6.446-4.9 5.946-9.406 4.322-9.001-3.293-14.108-.48-18.648-6.047-.316-.387-.87-.521-1.246-.193a4.37 4.37 0 0 0-1.492 3.292c0 1.514.774 2.81 1.922 3.587a.33.33 0 0 0 .44-.081c.28-.357.51-.594.794-.744.312-.164.464.286.2.521-.964.862-1.24 1.889-1.87 3.913-.99 3.173-.57 6.42-5.199 7.27-2.45.125-2.4 1.799-3.292 4.297-1.034 3.016-2.388 4.351-4.894 6.986-.343.36-.373.937.004 1.261 1.001.861 2.034.909 3.083.472 2.6-1.099 4.604-4.497 6.485-6.695 2.104-2.449 7.154-1.4 10.966-3.798 2.056-1.272 3.29-2.897 2.896-5.332-.064-.392.38-.628.542-.265.306.688.507 1.422.59 2.18a.38.38 0 0 0 .396.335c4.124-.234 9.437 4.498 14.557 5.589.303.075.598-.308.426-.571-.315-.485-.513-1.156-.586-1.461s.362-.668.956 0c1.424 1.604 3.526 2.878 6.188 3.073 1.213.1 2.55-.05 3.936-.475 1.658-.5 3.193-1.149 5.024-.8 1.362.25 2.624.95 3.416 2.124 1.112 1.636 3.458 2.07 4.709.36.17-.233.184-.544.072-.81-2.754-6.514-9.746-6.962-12.75-7.744" clip-rule="evenodd"/></svg>