<svg version="1.1" id="Layer_1" xmlns:x="ns_extend;" xmlns:i="ns_ai;" xmlns:graph="ns_graphs;" xmlns="http://www.w3.org/2000/svg" xmlns:xlink="http://www.w3.org/1999/xlink" x="0px" y="0px" viewBox="0 0 113.3 99" style="enable-background:new 0 0 113.3 99;" xml:space="preserve">
 <style type="text/css">
  .st0{fill-rule:evenodd;clip-rule:evenodd;fill:#615EFF;}
	.st1{fill-rule:evenodd;clip-rule:evenodd;fill:#1A194D;}
 </style>
 <metadata>
  <sfw xmlns="ns_sfw;">
   <slices>
   </slices>
   <sliceSourceBounds bottomLeftOrigin="true" height="99" width="113.3" x="193.5" y="200.7">
   </sliceSourceBounds>
  </sfw>
 </metadata>
 <g>
  <path class="st0" d="M48.1,6.7c5.8-6.6,15.4-8.5,23.4-4.7C82,7,85.8,19.9,80.1,29.8L67.2,52.2c-0.7,1.2-1.9,2.2-3.3,2.5
		c-1.4,0.4-2.9,0.2-4.1-0.5l15.6-27.1c4.2-7.2,1.4-16.6-6.3-20.3c-5.7-2.8-12.7-1.4-16.9,3.4c-2.3,2.6-3.6,6-3.7,9.5
		c0,3.5,1.2,6.9,3.4,9.6c0.4,0.5,0.8,0.9,1.3,1.4l-9.1,15.8c-0.4,0.6-0.8,1.2-1.4,1.6c-0.6,0.4-1.2,0.8-1.9,0.9
		c-0.7,0.2-1.4,0.2-2.1,0.1c-0.7-0.1-1.4-0.3-2-0.7l9.9-17.2c-1.4-2.1-2.4-4.4-3-6.8L37.6,35c-0.7,1.2-1.9,2.2-3.3,2.5
		c-1.4,0.4-2.9,0.2-4.1-0.5L45.8,9.8C46.5,8.7,47.2,7.6,48.1,6.7z M66.2,15.3c3.8,2.2,5.1,7,2.9,10.8l-15,26
		c-0.7,1.2-1.9,2.2-3.3,2.5c-1.4,0.4-2.9,0.2-4.1-0.5l14-24.2c-1.1-0.2-2.2-0.7-3.1-1.4c-0.9-0.7-1.7-1.6-2.2-2.6
		c-0.5-1-0.9-2.1-0.9-3.3c-0.1-1.1,0.1-2.3,0.5-3.4c0.4-1.1,1-2,1.9-2.8c0.8-0.8,1.8-1.4,2.9-1.8c1.1-0.4,2.2-0.5,3.4-0.4
		C64.1,14.4,65.2,14.8,66.2,15.3z M60.7,20.2c-0.3,0.2-0.5,0.4-0.6,0.7c-0.2,0.4-0.4,0.9-0.3,1.4c0,0.5,0.2,1,0.5,1.4
		c0.3,0.4,0.7,0.7,1.2,0.8s1,0.2,1.4,0c0.5-0.1,0.9-0.4,1.2-0.8c0.3-0.4,0.5-0.8,0.6-1.3c0.1-0.5,0-1-0.2-1.4
		c-0.2-0.4-0.6-0.8-1-1.1c-0.3-0.2-0.6-0.3-0.9-0.3c-0.3,0-0.7,0-1,0.1C61.2,19.9,61,20,60.7,20.2z">
  </path>
  <path class="st1" d="M0,91.1l9.3-23.8h5.4L24,91.1h-5.2l-2-5.3H7.2l-2,5.3H0z M15.2,81.4c-0.6-1.9-1.2-3.5-1.7-5
		c-0.5-1.5-1-3-1.5-4.6c-0.5,1.6-1,3.1-1.5,4.6c-0.5,1.5-1.1,3.1-1.7,5H15.2z M25.6,69.8c0-0.8,0.2-1.4,0.7-1.8
		c0.5-0.5,1.1-0.7,1.8-0.7c0.8,0,1.4,0.2,1.8,0.7c0.5,0.5,0.7,1.1,0.7,1.8c0,0.8-0.2,1.4-0.7,1.8c-0.5,0.5-1.1,0.7-1.8,0.7
		c-0.8,0-1.4-0.2-1.8-0.7C25.8,71.2,25.6,70.5,25.6,69.8z M25.8,91.1V75.2h4.6v15.9H25.8z M34.3,75.2v15.9h4.6v-7
		c0-1.7,0.4-3,1.1-3.9c0.8-0.9,1.7-1.4,3-1.4c0.6,0,1.2,0.1,1.8,0.3l0.6-4c-0.7-0.2-1.4-0.3-2.1-0.3c-2,0-3.6,0.9-4.8,2.6v-2.3H34.3
		z M47.2,91.1V67.2h4.6v9.5c0.7-0.6,1.4-1.1,2.3-1.4c0.9-0.3,1.8-0.5,2.8-0.5c1.5,0,2.8,0.4,4,1.1c1.2,0.7,2.1,1.7,2.7,2.9
		c0.7,1.2,1,2.7,1,4.2c0,1.6-0.3,3-1,4.3c-0.7,1.2-1.6,2.2-2.7,2.9c-1.2,0.7-2.5,1.1-4,1.1c-1,0-2-0.2-2.9-0.5
		c-0.9-0.4-1.7-0.9-2.3-1.5l-0.1,1.7H47.2z M56.2,87.4c1.2,0,2.1-0.4,2.9-1.2c0.8-0.8,1.1-1.8,1.1-3.1c0-1.2-0.4-2.2-1.1-3.1
		c-0.8-0.8-1.7-1.2-2.9-1.2c-1.2,0-2.1,0.4-2.9,1.2c-0.8,0.8-1.1,1.8-1.1,3.1c0,1.2,0.4,2.2,1.1,3.1C54.1,87,55.1,87.4,56.2,87.4z
		 M72.2,82.9l-3.7-7.8h-4.8l7.4,15.1L67.5,99h4.8l9.9-23.8h-4.8L73,85.5c-0.1-0.5-0.2-1-0.4-1.4C72.5,83.7,72.3,83.3,72.2,82.9z
		 M82.8,75.2h2.6v-4H90v4h3.9v4H90V85c0,0.8,0.2,1.3,0.7,1.8c0.5,0.4,1.1,0.6,1.8,0.6c0.6,0,1.1-0.1,1.7-0.4v3.7c-1,0.4-2,0.6-3,0.6
		c-1.9,0-3.3-0.5-4.4-1.5c-1-1-1.5-2.5-1.5-4.4v-6.4h-2.6V75.2z M102.5,86.6c-0.8-0.6-1.3-1.3-1.6-2.1h12.4v-1.4
		c0-1.6-0.4-3-1.1-4.3c-0.7-1.2-1.7-2.2-3-2.9c-1.2-0.7-2.7-1.1-4.3-1.1c-1.6,0-3,0.4-4.3,1.1c-1.3,0.7-2.3,1.7-3,2.9
		c-0.7,1.2-1.1,2.6-1.1,4.2c0,1.6,0.4,3,1.1,4.3c0.8,1.2,1.8,2.2,3.2,3c1.3,0.7,2.9,1.1,4.7,1.1c1.1,0,2.2-0.2,3.4-0.5
		c1.2-0.4,2.4-1,3.7-2l-2.8-3.3c-0.6,0.6-1.3,1-2,1.4c-0.7,0.3-1.6,0.5-2.7,0.5C104.2,87.5,103.3,87.2,102.5,86.6z M108.3,81.1
		c-0.3-0.6-0.6-1-1.1-1.4c-0.7-0.6-1.5-0.9-2.5-0.9c-1,0-1.8,0.3-2.5,0.9c-0.5,0.4-0.9,0.9-1.1,1.4H108.3z">
  </path>
 </g>
</svg>