<svg width="960" height="540" viewBox="0 0 960 540" fill="none" xmlns="http://www.w3.org/2000/svg">
<g clip-path="url(#clip0_289_59)">
<rect width="960" height="540" fill="#6644FF"/>
<g filter="url(#filter0_f_289_59)">
<path d="M187.936 73.7941C-53.6091 -56.6553 52.0303 -316.967 135.043 -430.816C291.96 -605.336 694.095 -601.957 875.548 -578.453C1007.78 -564.497 1283.71 -460.784 1329.55 -157.577C1386.85 221.431 979.13 137.697 734.499 -56.2146C489.868 -250.126 489.868 236.856 187.936 73.7941Z" fill="#6644FF"/>
</g>
<g filter="url(#filter1_f_289_59)">
<path d="M795.222 -97.1296C901.595 -350.203 1170.94 -270.346 1292.31 -198.783C1481.25 -59.5588 1516.94 341.003 1511.17 523.881C1510.12 656.844 1433.7 941.539 1136.38 1016.61C764.728 1110.45 808.467 696.53 977.702 434.222C1146.94 171.914 662.257 219.212 795.222 -97.1296Z" fill="#6644FF"/>
</g>
<g filter="url(#filter2_f_289_59)">
<path d="M1149.95 -542.34C1363.24 -425.184 1267.96 -195.088 1193.66 -94.6843C1053.47 59.0381 697.036 53.518 536.34 31.5426C419.214 18.3409 175.279 -75.3307 136.549 -344.404C88.1359 -680.745 449.019 -603.956 664.647 -430.523C880.275 -257.089 883.333 -688.786 1149.95 -542.34Z" fill="#FF99DD"/>
</g>
<g filter="url(#filter3_f_289_59)">
<path d="M1119.03 -171.754C1221.37 -56.1904 1038.09 273.269 922.522 375.608C806.959 477.947 975.814 161.264 873.476 45.7005C771.137 -69.863 401.92 89.9507 517.484 -12.388C633.047 -114.727 1016.69 -287.317 1119.03 -171.754Z" fill="#B2A1FF"/>
</g>
<g filter="url(#filter4_f_289_59)">
<path d="M-118.364 681.746C-227.515 572.595 -64.5271 232.637 44.6245 123.485C153.776 14.3339 4.41535 340.664 113.567 449.816C222.718 558.967 581.575 377.08 472.424 486.231C363.272 595.383 -9.21234 790.898 -118.364 681.746Z" fill="#B2A1FF"/>
</g>
<g opacity="0.2">
<path d="M-105.257 289.81V-14.9456C-105.257 -62.8646 -105.257 -86.8241 -95.1317 -107.578C-85.0065 -128.333 -66.1231 -143.08 -28.3562 -172.574L148.898 -311" stroke="url(#paint0_linear_289_59)"/>
<path d="M-96.8602 292.79V-11.9654C-96.8602 -59.8844 -96.8602 -83.844 -86.735 -104.598C-76.6098 -125.352 -57.7264 -140.099 -19.9595 -169.593L157.295 -308.02" stroke="url(#paint1_linear_289_59)"/>
<path d="M-88.4659 295.771V-8.98516C-88.4659 -56.9042 -88.4659 -80.8637 -78.3408 -101.618C-68.2156 -122.372 -49.3322 -137.119 -11.5653 -166.613L165.689 -305.04" stroke="url(#paint2_linear_289_59)"/>
<path d="M-80.0715 298.751V-6.00491C-80.0715 -53.924 -80.0715 -77.8835 -69.9463 -98.6377C-59.8211 -119.392 -40.9377 -134.139 -3.17083 -163.633L174.083 -302.059" stroke="url(#paint3_linear_289_59)"/>
<path d="M-71.6748 301.731V-3.02473C-71.6748 -50.9438 -71.6748 -74.9033 -61.5496 -95.6575C-51.4245 -116.412 -32.541 -131.159 5.22584 -160.653L182.48 -299.079" stroke="url(#paint4_linear_289_59)"/>
<path d="M-63.2794 304.711V-0.0445569C-63.2794 -47.9636 -63.2794 -71.9231 -53.1542 -92.6773C-43.029 -113.431 -24.1456 -128.178 13.6213 -157.672L190.875 -296.099" stroke="url(#paint5_linear_289_59)"/>
<path d="M-54.8839 307.692V2.93576C-54.8839 -44.9833 -54.8839 -68.9428 -44.7587 -89.697C-34.6335 -110.451 -15.7501 -125.198 22.0168 -154.692L199.271 -293.119" stroke="url(#paint6_linear_289_59)"/>
<path d="M-46.4883 310.672V5.91587C-46.4883 -42.0032 -46.4883 -65.9627 -36.3631 -86.7169C-26.2379 -107.471 -7.3545 -122.218 30.4124 -151.712L207.667 -290.139" stroke="url(#paint7_linear_289_59)"/>
<path d="M-38.0928 313.652V8.89611C-38.0928 -39.0229 -38.0928 -62.9825 -27.9677 -83.7366C-17.8425 -104.491 1.04095 -119.238 38.8078 -148.732L216.062 -287.158" stroke="url(#paint8_linear_289_59)"/>
<path d="M-29.6973 316.632V11.8764C-29.6973 -36.0427 -29.6973 -60.0022 -19.5722 -80.7564C-9.44697 -101.511 9.43646 -116.258 47.2033 -145.752L224.457 -284.178" stroke="url(#paint9_linear_289_59)"/>
<path d="M-21.3018 319.612V14.8565C-21.3018 -33.0625 -21.3018 -57.022 -11.1766 -77.7762C-1.05141 -98.5304 17.832 -113.277 55.5989 -142.771L232.853 -281.198" stroke="url(#paint10_linear_289_59)"/>
<path d="M-12.9061 322.593V17.8368C-12.9061 -30.0823 -12.9061 -54.0418 -2.78095 -74.796C7.34422 -95.5502 26.2277 -110.297 63.9945 -139.791L241.249 -278.218" stroke="url(#paint11_linear_289_59)"/>
<path d="M-4.5119 325.573V20.8169C-4.5119 -27.1022 -4.5119 -51.0617 5.61327 -71.8159C15.7385 -92.57 34.6219 -107.317 72.3887 -136.811L249.643 -275.238" stroke="url(#paint12_linear_289_59)"/>
<path d="M3.88477 328.553V23.7971C3.88477 -24.1219 3.88477 -48.0814 14.0099 -68.8356C24.1351 -89.5898 43.0185 -104.337 80.7854 -133.831L258.04 -272.257" stroke="url(#paint13_linear_289_59)"/>
<path d="M12.2791 331.533V26.7773C12.2791 -21.1417 12.2791 -45.1013 22.4043 -65.8554C32.5295 -86.6096 51.4129 -101.357 89.1798 -130.851L266.434 -269.277" stroke="url(#paint14_linear_289_59)"/>
<path d="M20.6758 334.513V29.7576C20.6758 -18.1615 20.6758 -42.121 30.801 -62.8752C40.9261 -83.6293 59.8096 -98.3763 97.5764 -127.87L274.831 -266.297" stroke="url(#paint15_linear_289_59)"/>
<path d="M29.0724 337.494V32.7377C29.0724 -15.1813 29.0724 -39.1408 39.1976 -59.895C49.3228 -80.6492 68.2062 -95.3962 105.973 -124.89L283.227 -263.317" stroke="url(#paint16_linear_289_59)"/>
<path d="M37.4668 340.474V35.718C37.4668 -12.201 37.4668 -36.1606 47.592 -56.9147C57.7171 -77.6689 76.6006 -92.4159 114.367 -121.91L291.622 -260.336" stroke="url(#paint17_linear_289_59)"/>
<path d="M45.8622 343.454V38.6982C45.8622 -9.22082 45.8622 -33.1803 55.9874 -53.9345C66.1126 -74.6887 84.996 -89.4357 122.763 -118.93L300.017 -257.356" stroke="url(#paint18_linear_289_59)"/>
<path d="M54.2578 346.434V41.6784C54.2578 -6.24064 54.2578 -30.2002 64.383 -50.9543C74.5082 -71.7085 93.3916 -86.4555 131.158 -115.95L308.413 -254.376" stroke="url(#paint19_linear_289_59)"/>
<path d="M62.6533 349.414V44.6586C62.6533 -3.26047 62.6533 -27.22 72.7785 -47.9742C82.9037 -68.7284 101.787 -83.4754 139.554 -112.969L316.808 -251.396" stroke="url(#paint20_linear_289_59)"/>
<path d="M71.0488 352.395V47.6388C71.0488 -0.280287 71.0488 -24.2398 81.1739 -44.994C91.2991 -65.7482 110.183 -80.4952 147.949 -109.989L325.204 -248.416" stroke="url(#paint21_linear_289_59)"/>
<path d="M79.4443 355.375V50.619C79.4443 2.69996 79.4443 -21.2596 89.5695 -42.0138C99.6947 -62.7679 118.578 -77.5149 156.345 -107.009L333.599 -245.435" stroke="url(#paint22_linear_289_59)"/>
<path d="M87.8398 358.355V53.5992C87.8398 5.68017 87.8398 -18.2793 97.965 -39.0335C108.09 -59.7877 126.974 -74.5347 164.74 -104.029L341.995 -242.455" stroke="url(#paint23_linear_289_59)"/>
<path d="M96.2353 361.335V56.5795C96.2353 8.66041 96.2353 -15.2991 106.36 -36.0533C116.486 -56.8075 135.369 -71.5545 173.136 -101.048L350.39 -239.475" stroke="url(#paint24_linear_289_59)"/>
<path d="M104.63 364.316V59.5596C104.63 11.6406 104.63 -12.319 114.755 -33.0731C124.88 -53.8273 143.763 -68.5743 181.53 -98.0683L358.784 -236.495" stroke="url(#paint25_linear_289_59)"/>
<path d="M113.026 367.296V62.5398C113.026 14.6208 113.026 -9.33872 123.152 -30.0929C133.277 -50.8471 152.16 -65.5941 189.927 -95.0881L367.181 -233.515" stroke="url(#paint26_linear_289_59)"/>
<path d="M121.421 370.276V65.5201C121.421 17.601 121.421 -6.3585 131.546 -27.1127C141.671 -47.8669 160.554 -62.6139 198.321 -92.1079L375.576 -230.534" stroke="url(#paint27_linear_289_59)"/>
<path d="M129.817 373.256V68.5003C129.817 20.5812 129.817 -3.3783 139.942 -24.1325C150.068 -44.8867 168.951 -59.6337 206.718 -89.1277L383.972 -227.554" stroke="url(#paint28_linear_289_59)"/>
<path d="M138.212 376.236V71.4805C138.212 23.5614 138.212 -0.398086 148.337 -21.1523C158.462 -41.9065 177.346 -56.6535 215.112 -86.1475L392.367 -224.574" stroke="url(#paint29_linear_289_59)"/>
<path d="M146.608 379.217V74.4607C146.608 26.5417 146.608 2.58213 156.734 -18.1721C166.859 -38.9262 185.742 -53.6732 223.509 -83.1672L400.763 -221.594" stroke="url(#paint30_linear_289_59)"/>
<path d="M155.004 382.197V77.4409C155.004 29.5219 155.004 5.56234 165.129 -15.1918C175.254 -35.946 194.138 -50.693 231.905 -80.187L409.159 -218.614" stroke="url(#paint31_linear_289_59)"/>
<path d="M163.399 385.177V80.4211C163.399 32.5021 163.399 8.54255 173.525 -12.2116C183.65 -32.9658 202.533 -47.7128 240.3 -77.2068L417.554 -215.633" stroke="url(#paint32_linear_289_59)"/>
<path d="M171.795 388.157V83.4013C171.795 35.4823 171.795 11.5228 181.92 -9.23142C192.045 -29.9856 210.929 -44.7326 248.696 -74.2266L425.95 -212.653" stroke="url(#paint33_linear_289_59)"/>
<path d="M180.19 391.137V86.3816C180.19 38.4625 180.19 14.503 190.316 -6.25118C200.441 -27.0054 219.324 -41.7524 257.091 -71.2464L434.345 -209.673" stroke="url(#paint34_linear_289_59)"/>
<path d="M188.586 394.118V89.3618C188.586 41.4427 188.586 17.4832 198.711 -3.271C208.836 -24.0252 227.72 -38.7722 265.487 -68.2662L442.741 -206.693" stroke="url(#paint35_linear_289_59)"/>
<path d="M196.981 397.098V92.342C196.981 44.423 196.981 20.4634 207.107 -0.290751C217.232 -21.0449 236.115 -35.7919 273.882 -65.2859L451.136 -203.712" stroke="url(#paint36_linear_289_59)"/>
<path d="M205.377 400.078V95.3222C205.377 47.4031 205.377 23.4436 215.502 2.68943C225.627 -18.0648 244.511 -32.8118 282.278 -62.3058L459.532 -200.732" stroke="url(#paint37_linear_289_59)"/>
<path d="M213.771 403.058V98.3024C213.771 50.3833 213.771 26.4238 223.896 5.6696C234.022 -15.0846 252.905 -29.8316 290.672 -59.3256L467.926 -197.752" stroke="url(#paint38_linear_289_59)"/>
<path d="M222.168 406.038V101.283C222.168 53.3636 222.168 29.404 232.293 8.64985C242.418 -12.1043 261.302 -26.8513 299.069 -56.3453L476.323 -194.772" stroke="url(#paint39_linear_289_59)"/>
<path d="M230.562 409.019V104.263C230.562 56.3438 230.562 32.3842 240.688 11.6301C250.813 -9.12412 269.696 -23.8711 307.463 -53.3651L484.717 -191.792" stroke="url(#paint40_linear_289_59)"/>
<path d="M238.959 411.999V107.243C238.959 59.3239 238.959 35.3644 249.084 14.6102C259.209 -6.14398 278.093 -20.891 315.86 -50.385L493.114 -188.811" stroke="url(#paint41_linear_289_59)"/>
<path d="M247.353 414.979V110.223C247.353 62.3042 247.353 38.3446 257.479 17.5905C267.604 -3.16373 286.487 -17.9107 324.254 -47.4047L501.508 -185.831" stroke="url(#paint42_linear_289_59)"/>
<path d="M255.75 417.959V113.203C255.75 65.2843 255.75 41.3248 265.875 20.5706C276 -0.183561 294.884 -14.9306 332.651 -44.4246L509.905 -182.851" stroke="url(#paint43_linear_289_59)"/>
<path d="M264.144 420.939V116.184C264.144 68.2645 264.144 44.305 274.27 23.5508C284.395 2.79665 303.278 -11.9504 341.045 -41.4443L518.299 -179.871" stroke="url(#paint44_linear_289_59)"/>
<path d="M272.541 423.92V119.164C272.541 71.2448 272.541 47.2853 282.666 26.5311C292.791 5.7769 311.675 -8.9701 349.442 -38.4641L526.696 -176.891" stroke="url(#paint45_linear_289_59)"/>
<path d="M280.937 426.9V122.144C280.937 74.225 280.937 50.2655 291.062 29.5113C301.187 8.75711 320.07 -5.98989 357.837 -35.4839L535.091 -173.91" stroke="url(#paint46_linear_289_59)"/>
<path d="M289.332 429.88V125.124C289.332 77.2052 289.332 53.2457 299.457 32.4915C309.582 11.7374 328.466 -3.00965 366.233 -32.5036L543.487 -170.93" stroke="url(#paint47_linear_289_59)"/>
<path d="M297.728 432.86V128.104C297.728 80.1854 297.728 56.2259 307.853 35.4717C317.978 14.7175 336.861 -0.0294982 374.628 -29.5235L551.882 -167.95" stroke="url(#paint48_linear_289_59)"/>
<path d="M306.123 435.841V131.085C306.123 83.1656 306.123 59.2061 316.248 38.4519C326.373 17.6977 345.257 2.95071 383.024 -26.5433L560.278 -164.97" stroke="url(#paint49_linear_289_59)"/>
<path d="M314.519 438.821V134.065C314.519 86.1458 314.519 62.1863 324.644 41.4321C334.769 20.6779 353.652 5.93092 391.419 -23.5631L568.673 -161.99" stroke="url(#paint50_linear_289_59)"/>
<path d="M322.913 441.801V137.045C322.913 89.1261 322.913 65.1666 333.038 44.4124C343.163 23.6582 362.047 8.91121 399.814 -20.5828L577.068 -159.009" stroke="url(#paint51_linear_289_59)"/>
<path d="M331.31 444.781V140.025C331.31 92.1063 331.31 68.1468 341.435 47.3926C351.56 26.6384 370.443 11.8914 408.21 -17.6026L585.464 -156.029" stroke="url(#paint52_linear_289_59)"/>
<path d="M339.704 447.761V143.006C339.704 95.0865 339.704 71.127 349.829 50.3728C359.954 29.6186 378.838 14.8716 416.605 -14.6224L593.859 -153.049" stroke="url(#paint53_linear_289_59)"/>
<path d="M348.101 450.742V145.986C348.101 98.0667 348.101 74.1071 358.226 53.353C368.351 32.5988 387.234 17.8518 425.001 -11.6422L602.255 -150.069" stroke="url(#paint54_linear_289_59)"/>
<path d="M356.495 453.722V148.966C356.495 101.047 356.495 77.0874 366.62 56.3332C376.745 35.579 395.629 20.832 433.396 -8.66196L610.65 -147.088" stroke="url(#paint55_linear_289_59)"/>
<path d="M364.891 456.702V151.946C364.891 104.027 364.891 80.0676 375.017 59.3134C385.142 38.5592 404.025 23.8122 441.792 -5.68181L619.046 -144.108" stroke="url(#paint56_linear_289_59)"/>
<path d="M373.286 459.682V154.926C373.286 107.007 373.286 83.0478 383.411 62.2937C393.536 41.5395 412.42 26.7925 450.187 -2.70152L627.441 -141.128" stroke="url(#paint57_linear_289_59)"/>
<path d="M381.683 462.662V157.907C381.683 109.988 381.683 86.028 391.808 65.2738C401.933 44.5196 420.816 29.7726 458.583 0.278612L635.837 -138.148" stroke="url(#paint58_linear_289_59)"/>
<path d="M390.078 465.643V160.887C390.078 112.968 390.078 89.0083 400.203 68.2541C410.328 47.4999 429.212 32.7529 466.979 3.2589L644.233 -135.168" stroke="url(#paint59_linear_289_59)"/>
<path d="M398.474 468.623V163.867C398.474 115.948 398.474 91.9885 408.599 71.2343C418.724 50.4801 437.607 35.7331 475.374 6.23911L652.628 -132.187" stroke="url(#paint60_linear_289_59)"/>
<path d="M406.869 471.603V166.847C406.869 118.928 406.869 94.9686 416.994 74.2144C427.119 53.4603 446.003 38.7133 483.77 9.21926L661.024 -129.207" stroke="url(#paint61_linear_289_59)"/>
<path d="M415.265 474.583V169.827C415.265 121.908 415.265 97.9488 425.39 77.1946C435.515 56.4405 454.398 41.6935 492.165 12.1995L669.419 -126.227" stroke="url(#paint62_linear_289_59)"/>
<path d="M423.66 477.564V172.808C423.66 124.889 423.66 100.929 433.785 80.1749C443.911 59.4207 462.794 44.6737 500.561 15.1797L677.815 -123.247" stroke="url(#paint63_linear_289_59)"/>
<path d="M432.056 480.544V175.788C432.056 127.869 432.056 103.909 442.181 83.1551C452.306 62.4009 471.19 47.6539 508.956 18.1599L686.211 -120.267" stroke="url(#paint64_linear_289_59)"/>
<path d="M440.451 483.524V178.768C440.451 130.849 440.451 106.889 450.576 86.1353C460.702 65.3811 479.585 50.6341 517.352 21.1401L694.606 -117.286" stroke="url(#paint65_linear_289_59)"/>
<path d="M448.846 486.504V181.748C448.846 133.829 448.846 109.87 458.971 89.1155C469.096 68.3613 487.979 53.6143 525.746 24.1203L703 -114.306" stroke="url(#paint66_linear_289_59)"/>
<path d="M457.242 489.484V184.728C457.242 136.809 457.242 112.85 467.367 92.0957C477.493 71.3415 496.376 56.5945 534.143 27.1005L711.397 -111.326" stroke="url(#paint67_linear_289_59)"/>
<path d="M465.637 492.465V187.709C465.637 139.79 465.637 115.83 475.762 95.0759C485.887 74.3217 504.77 59.5747 542.537 30.0807L719.791 -108.346" stroke="url(#paint68_linear_289_59)"/>
<path d="M474.033 495.445V190.689C474.033 142.77 474.033 118.81 484.158 98.0561C494.284 77.3019 513.167 62.5549 550.934 33.0609L728.188 -105.366" stroke="url(#paint69_linear_289_59)"/>
<path d="M482.428 498.425V193.669C482.428 145.75 482.428 121.791 492.553 101.036C502.678 80.2822 521.561 65.5352 559.328 36.0412L736.582 -102.385" stroke="url(#paint70_linear_289_59)"/>
<path d="M490.824 501.405V196.649C490.824 148.73 490.824 124.771 500.949 104.017C511.075 83.2624 529.958 68.5154 567.725 39.0214L744.979 -99.405" stroke="url(#paint71_linear_289_59)"/>
<path d="M499.219 504.385V199.63C499.219 151.71 499.219 127.751 509.344 106.997C519.469 86.2426 538.352 71.4956 576.119 42.0016L753.373 -96.4249" stroke="url(#paint72_linear_289_59)"/>
<path d="M507.615 507.366V202.61C507.615 154.691 507.615 130.731 517.74 109.977C527.866 89.2228 546.749 74.4758 584.516 44.9818L761.77 -93.4447" stroke="url(#paint73_linear_289_59)"/>
<path d="M516.009 510.346V205.59C516.009 157.671 516.009 133.711 526.135 112.957C536.26 92.2031 555.143 77.4561 592.91 47.9621L770.164 -90.4644" stroke="url(#paint74_linear_289_59)"/>
<path d="M524.405 513.326V208.57C524.405 160.651 524.405 136.692 534.53 115.937C544.656 95.1833 563.539 80.4363 601.306 50.9423L778.56 -87.4842" stroke="url(#paint75_linear_289_59)"/>
<path d="M532.802 516.306V211.55C532.802 163.631 532.802 139.672 542.927 118.918C553.052 98.1635 571.936 83.4165 609.702 53.9225L786.957 -84.504" stroke="url(#paint76_linear_289_59)"/>
<path d="M541.196 519.286V214.531C541.196 166.612 541.196 142.652 551.321 121.898C561.446 101.144 580.33 86.3966 618.097 56.9026L795.351 -81.5238" stroke="url(#paint77_linear_289_59)"/>
<path d="M549.593 522.267V217.511C549.593 169.592 549.593 145.632 559.718 124.878C569.843 104.124 588.727 89.3768 626.493 59.8828L803.748 -78.5436" stroke="url(#paint78_linear_289_59)"/>
<path d="M557.987 525.247V220.491C557.987 172.572 557.987 148.612 568.112 127.858C578.237 107.104 597.121 92.357 634.888 62.863L812.142 -75.5635" stroke="url(#paint79_linear_289_59)"/>
<path d="M566.384 528.227V223.471C566.384 175.552 566.384 151.593 576.509 130.838C586.634 110.084 605.517 95.3373 643.284 65.8433L820.538 -72.5832" stroke="url(#paint80_linear_289_59)"/>
<path d="M574.778 531.207V226.451C574.778 178.532 574.778 154.573 584.903 133.819C595.029 113.064 613.912 98.3175 651.679 68.8235L828.933 -69.603" stroke="url(#paint81_linear_289_59)"/>
<path d="M583.175 534.187V229.432C583.175 181.513 583.175 157.553 593.3 136.799C603.425 116.045 622.309 101.298 660.075 71.8036L837.33 -66.6229" stroke="url(#paint82_linear_289_59)"/>
<path d="M591.569 537.168V232.412C591.569 184.493 591.569 160.533 601.694 139.779C611.82 119.025 630.703 104.278 668.47 74.7839L845.724 -63.6426" stroke="url(#paint83_linear_289_59)"/>
<path d="M599.966 540.148V235.392C599.966 187.473 599.966 163.513 610.091 142.759C620.216 122.005 639.1 107.258 676.866 77.764L854.121 -60.6625" stroke="url(#paint84_linear_289_59)"/>
<path d="M608.36 543.128V238.372C608.36 190.453 608.36 166.494 618.485 145.739C628.611 124.985 647.494 110.238 685.261 80.7443L862.515 -57.6822" stroke="url(#paint85_linear_289_59)"/>
<path d="M616.757 546.108V241.352C616.757 193.433 616.757 169.474 626.882 148.72C637.007 127.965 655.891 113.218 693.657 83.7245L870.912 -54.702" stroke="url(#paint86_linear_289_59)"/>
<path d="M625.153 549.089V244.333C625.153 196.414 625.153 172.454 635.278 151.7C645.403 130.946 664.286 116.199 702.053 86.7047L879.307 -51.7217" stroke="url(#paint87_linear_289_59)"/>
<path d="M633.547 552.069V247.313C633.547 199.394 633.547 175.434 643.672 154.68C653.797 133.926 672.681 119.179 710.447 89.685L887.702 -48.7415" stroke="url(#paint88_linear_289_59)"/>
<path d="M641.943 555.049V250.293C641.943 202.374 641.943 178.414 652.069 157.66C662.194 136.906 681.077 122.159 718.844 92.6651L896.098 -45.7614" stroke="url(#paint89_linear_289_59)"/>
<path d="M650.338 558.029V253.273C650.338 205.354 650.338 181.395 660.463 160.641C670.588 139.886 689.471 125.139 727.238 95.6453L904.492 -42.7812" stroke="url(#paint90_linear_289_59)"/>
<path d="M658.734 561.009V256.254C658.734 208.335 658.734 184.375 668.86 163.621C678.985 142.867 697.868 128.12 735.635 98.6256L912.889 -39.8009" stroke="url(#paint91_linear_289_59)"/>
<path d="M667.129 563.99V259.234C667.129 211.315 667.129 187.355 677.254 166.601C687.379 145.847 706.263 131.1 744.029 101.606L921.284 -36.8207" stroke="url(#paint92_linear_289_59)"/>
<path d="M675.525 566.97V262.214C675.525 214.295 675.525 190.335 685.65 169.581C695.776 148.827 714.659 134.08 752.426 104.586L929.68 -33.8405" stroke="url(#paint93_linear_289_59)"/>
<path d="M683.92 569.95V265.194C683.92 217.275 683.92 193.316 694.045 172.561C704.17 151.807 723.054 137.06 760.821 107.566L938.075 -30.8603" stroke="url(#paint94_linear_289_59)"/>
<path d="M692.316 572.93V268.174C692.316 220.255 692.316 196.296 702.442 175.542C712.567 154.787 731.45 140.04 769.217 110.546L946.471 -27.8801" stroke="url(#paint95_linear_289_59)"/>
<path d="M700.711 575.91V271.155C700.711 223.236 700.711 199.276 710.836 178.522C720.961 157.768 739.845 143.021 777.612 113.527L954.866 -24.8998" stroke="url(#paint96_linear_289_59)"/>
<path d="M709.107 578.891V274.135C709.107 226.216 709.107 202.256 719.233 181.502C729.358 160.748 748.241 146.001 786.008 116.507L963.262 -21.9196" stroke="url(#paint97_linear_289_59)"/>
<path d="M717.502 581.871V277.115C717.502 229.196 717.502 205.236 727.627 184.482C737.752 163.728 756.635 148.981 794.402 119.487L971.656 -18.9395" stroke="url(#paint98_linear_289_59)"/>
<path d="M725.898 584.851V280.095C725.898 232.176 725.898 208.217 736.024 187.462C746.149 166.708 765.032 151.961 802.799 122.467L980.053 -15.9592" stroke="url(#paint99_linear_289_59)"/>
<path d="M734.293 587.831V283.075C734.293 235.156 734.293 211.197 744.418 190.443C754.543 169.689 773.426 154.942 811.193 125.448L988.447 -12.979" stroke="url(#paint100_linear_289_59)"/>
<path d="M742.688 590.812V286.056C742.688 238.137 742.688 214.177 752.814 193.423C762.939 172.669 781.822 157.922 819.589 128.428L996.843 -9.99878" stroke="url(#paint101_linear_289_59)"/>
<path d="M751.084 593.792V289.036C751.084 241.117 751.084 217.157 761.209 196.403C771.334 175.649 790.217 160.902 827.984 131.408L1005.24 -7.01855" stroke="url(#paint102_linear_289_59)"/>
<path d="M759.479 596.772V292.016C759.479 244.097 759.479 220.137 769.605 199.383C779.73 178.629 798.613 163.882 836.38 134.388L1013.63 -4.03848" stroke="url(#paint103_linear_289_59)"/>
<path d="M767.876 599.752V294.996C767.876 247.077 767.876 223.118 778.001 202.364C788.126 181.609 807.01 166.862 844.777 137.368L1022.03 -1.05814" stroke="url(#paint104_linear_289_59)"/>
<path d="M776.27 602.732V297.976C776.27 250.057 776.27 226.098 786.395 205.344C796.521 184.589 815.404 169.842 853.171 140.348L1030.43 1.92194" stroke="url(#paint105_linear_289_59)"/>
<path d="M784.667 605.713V300.957C784.667 253.038 784.667 229.078 794.792 208.324C804.917 187.57 823.801 172.823 861.567 143.329L1038.82 4.90222" stroke="url(#paint106_linear_289_59)"/>
<path d="M793.061 608.693V303.937C793.061 256.018 793.061 232.058 803.186 211.304C813.311 190.55 832.195 175.803 869.962 146.309L1047.22 7.88251" stroke="url(#paint107_linear_289_59)"/>
<path d="M801.458 611.673V306.917C801.458 258.998 801.458 235.038 811.583 214.284C821.708 193.53 840.591 178.783 878.358 149.289L1055.61 10.8626" stroke="url(#paint108_linear_289_59)"/>
<path d="M809.852 614.653V309.897C809.852 261.978 809.852 238.019 819.978 217.265C830.103 196.51 848.986 181.763 886.753 152.269L1064.01 13.8429" stroke="url(#paint109_linear_289_59)"/>
<path d="M818.249 617.633V312.878C818.249 264.958 818.249 240.999 828.374 220.245C838.499 199.491 857.383 184.744 895.15 155.25L1072.4 16.8231" stroke="url(#paint110_linear_289_59)"/>
<path d="M826.643 620.614V315.858C826.643 267.939 826.643 243.979 836.768 223.225C846.894 202.471 865.777 187.724 903.544 158.23L1080.8 19.8033" stroke="url(#paint111_linear_289_59)"/>
<path d="M835.04 623.594V318.838C835.04 270.919 835.04 246.959 845.165 226.205C855.291 205.451 874.174 190.704 911.941 161.21L1089.19 22.7835" stroke="url(#paint112_linear_289_59)"/>
<path d="M843.434 626.574V321.818C843.434 273.899 843.434 249.94 853.559 229.185C863.685 208.431 882.568 193.684 920.335 164.19L1097.59 25.7637" stroke="url(#paint113_linear_289_59)"/>
<path d="M851.83 629.554V324.798C851.83 276.879 851.83 252.92 861.955 232.166C872.08 211.411 890.964 196.664 928.731 167.17L1105.98 28.7439" stroke="url(#paint114_linear_289_59)"/>
<path d="M860.225 632.534V327.779C860.225 279.859 860.225 255.9 870.351 235.146C880.476 214.392 899.359 199.645 937.126 170.151L1114.38 31.7241" stroke="url(#paint115_linear_289_59)"/>
<path d="M868.621 635.515V330.759C868.621 282.84 868.621 258.88 878.746 238.126C888.871 217.372 907.755 202.625 945.522 173.131L1122.78 34.7044" stroke="url(#paint116_linear_289_59)"/>
<path d="M877.016 638.495V333.739C877.016 285.82 877.016 261.86 887.142 241.106C897.267 220.352 916.15 205.605 953.917 176.111L1131.17 37.6846" stroke="url(#paint117_linear_289_59)"/>
<path d="M885.412 641.475V336.719C885.412 288.8 885.412 264.841 895.537 244.086C905.662 223.332 924.546 208.585 962.312 179.091L1139.57 40.6647" stroke="url(#paint118_linear_289_59)"/>
<path d="M893.808 644.455V339.699C893.808 291.78 893.808 267.821 903.933 247.067C914.058 226.312 932.941 211.565 970.708 182.071L1147.96 43.645" stroke="url(#paint119_linear_289_59)"/>
<path d="M902.203 647.436V342.68C902.203 294.761 902.203 270.801 912.328 250.047C922.453 229.293 941.337 214.546 979.104 185.052L1156.36 46.6252" stroke="url(#paint120_linear_289_59)"/>
<path d="M910.599 650.416V345.66C910.599 297.741 910.599 273.781 920.725 253.027C930.85 232.273 949.733 217.526 987.5 188.032L1164.75 49.6054" stroke="url(#paint121_linear_289_59)"/>
<path d="M918.994 653.396V348.64C918.994 300.721 918.994 276.761 929.119 256.007C939.245 235.253 958.128 220.506 995.895 191.012L1173.15 52.5855" stroke="url(#paint122_linear_289_59)"/>
<path d="M927.391 656.376V351.62C927.391 303.701 927.391 279.742 937.516 258.988C947.641 238.233 966.525 223.486 1004.29 193.992L1181.55 55.5659" stroke="url(#paint123_linear_289_59)"/>
<path d="M935.785 659.356V354.6C935.785 306.681 935.785 282.722 945.91 261.968C956.036 241.214 974.919 226.467 1012.69 196.973L1189.94 58.546" stroke="url(#paint124_linear_289_59)"/>
<path d="M944.182 662.336V357.581C944.182 309.662 944.182 285.702 954.307 264.948C964.432 244.194 983.315 229.447 1021.08 199.953L1198.34 61.5262" stroke="url(#paint125_linear_289_59)"/>
<path d="M952.576 665.317V360.561C952.576 312.642 952.576 288.682 962.701 267.928C972.826 247.174 991.71 232.427 1029.48 202.933L1206.73 64.5064" stroke="url(#paint126_linear_289_59)"/>
</g>
</g>
<defs>
<filter id="filter0_f_289_59" x="-161" y="-790" width="1696" height="1098" filterUnits="userSpaceOnUse" color-interpolation-filters="sRGB">
<feFlood flood-opacity="0" result="BackgroundImageFix"/>
<feBlend mode="normal" in="SourceGraphic" in2="BackgroundImageFix" result="shape"/>
<feGaussianBlur stdDeviation="100" result="effect1_foregroundBlur_289_59"/>
</filter>
<filter id="filter1_f_289_59" x="571.825" y="-469.834" width="1139.91" height="1700.03" filterUnits="userSpaceOnUse" color-interpolation-filters="sRGB">
<feFlood flood-opacity="0" result="BackgroundImageFix"/>
<feBlend mode="normal" in="SourceGraphic" in2="BackgroundImageFix" result="shape"/>
<feGaussianBlur stdDeviation="100" result="effect1_foregroundBlur_289_59"/>
</filter>
<filter id="filter2_f_289_59" x="-167.868" y="-878.645" width="1748.36" height="1221.67" filterUnits="userSpaceOnUse" color-interpolation-filters="sRGB">
<feFlood flood-opacity="0" result="BackgroundImageFix"/>
<feBlend mode="normal" in="SourceGraphic" in2="BackgroundImageFix" result="shape"/>
<feGaussianBlur stdDeviation="150" result="effect1_foregroundBlur_289_59"/>
</filter>
<filter id="filter3_f_289_59" x="95.3315" y="-610.138" width="1453.67" height="1405.81" filterUnits="userSpaceOnUse" color-interpolation-filters="sRGB">
<feFlood flood-opacity="0" result="BackgroundImageFix"/>
<feBlend mode="normal" in="SourceGraphic" in2="BackgroundImageFix" result="shape"/>
<feGaussianBlur stdDeviation="200" result="effect1_foregroundBlur_289_59"/>
</filter>
<filter id="filter4_f_289_59" x="-554.462" y="-298.543" width="1447.3" height="1412.38" filterUnits="userSpaceOnUse" color-interpolation-filters="sRGB">
<feFlood flood-opacity="0" result="BackgroundImageFix"/>
<feBlend mode="normal" in="SourceGraphic" in2="BackgroundImageFix" result="shape"/>
<feGaussianBlur stdDeviation="200" result="effect1_foregroundBlur_289_59"/>
</filter>
<linearGradient id="paint0_linear_289_59" x1="21.8206" y1="-311" x2="21.8206" y2="289.81" gradientUnits="userSpaceOnUse">
<stop stop-color="white"/>
<stop offset="1" stop-color="#4930B3" stop-opacity="0"/>
</linearGradient>
<linearGradient id="paint1_linear_289_59" x1="30.2172" y1="-308.02" x2="30.2172" y2="292.79" gradientUnits="userSpaceOnUse">
<stop stop-color="white"/>
<stop offset="1" stop-color="#4930B3" stop-opacity="0"/>
</linearGradient>
<linearGradient id="paint2_linear_289_59" x1="38.6115" y1="-305.04" x2="38.6115" y2="295.771" gradientUnits="userSpaceOnUse">
<stop stop-color="white"/>
<stop offset="1" stop-color="#4930B3" stop-opacity="0"/>
</linearGradient>
<linearGradient id="paint3_linear_289_59" x1="47.0059" y1="-302.059" x2="47.0059" y2="298.751" gradientUnits="userSpaceOnUse">
<stop stop-color="white"/>
<stop offset="1" stop-color="#4930B3" stop-opacity="0"/>
</linearGradient>
<linearGradient id="paint4_linear_289_59" x1="55.4026" y1="-299.079" x2="55.4026" y2="301.731" gradientUnits="userSpaceOnUse">
<stop stop-color="white"/>
<stop offset="1" stop-color="#4930B3" stop-opacity="0"/>
</linearGradient>
<linearGradient id="paint5_linear_289_59" x1="63.798" y1="-296.099" x2="63.798" y2="304.711" gradientUnits="userSpaceOnUse">
<stop stop-color="white"/>
<stop offset="1" stop-color="#4930B3" stop-opacity="0"/>
</linearGradient>
<linearGradient id="paint6_linear_289_59" x1="72.1936" y1="-293.119" x2="72.1936" y2="307.692" gradientUnits="userSpaceOnUse">
<stop stop-color="white"/>
<stop offset="1" stop-color="#4930B3" stop-opacity="0"/>
</linearGradient>
<linearGradient id="paint7_linear_289_59" x1="80.5891" y1="-290.139" x2="80.5891" y2="310.672" gradientUnits="userSpaceOnUse">
<stop stop-color="white"/>
<stop offset="1" stop-color="#4930B3" stop-opacity="0"/>
</linearGradient>
<linearGradient id="paint8_linear_289_59" x1="88.9846" y1="-287.158" x2="88.9846" y2="313.652" gradientUnits="userSpaceOnUse">
<stop stop-color="white"/>
<stop offset="1" stop-color="#4930B3" stop-opacity="0"/>
</linearGradient>
<linearGradient id="paint9_linear_289_59" x1="97.3801" y1="-284.178" x2="97.3801" y2="316.632" gradientUnits="userSpaceOnUse">
<stop stop-color="white"/>
<stop offset="1" stop-color="#4930B3" stop-opacity="0"/>
</linearGradient>
<linearGradient id="paint10_linear_289_59" x1="105.776" y1="-281.198" x2="105.776" y2="319.612" gradientUnits="userSpaceOnUse">
<stop stop-color="white"/>
<stop offset="1" stop-color="#4930B3" stop-opacity="0"/>
</linearGradient>
<linearGradient id="paint11_linear_289_59" x1="114.171" y1="-278.218" x2="114.171" y2="322.593" gradientUnits="userSpaceOnUse">
<stop stop-color="white"/>
<stop offset="1" stop-color="#4930B3" stop-opacity="0"/>
</linearGradient>
<linearGradient id="paint12_linear_289_59" x1="122.565" y1="-275.238" x2="122.565" y2="325.573" gradientUnits="userSpaceOnUse">
<stop stop-color="white"/>
<stop offset="1" stop-color="#4930B3" stop-opacity="0"/>
</linearGradient>
<linearGradient id="paint13_linear_289_59" x1="130.962" y1="-272.257" x2="130.962" y2="328.553" gradientUnits="userSpaceOnUse">
<stop stop-color="white"/>
<stop offset="1" stop-color="#4930B3" stop-opacity="0"/>
</linearGradient>
<linearGradient id="paint14_linear_289_59" x1="139.357" y1="-269.277" x2="139.357" y2="331.533" gradientUnits="userSpaceOnUse">
<stop stop-color="white"/>
<stop offset="1" stop-color="#4930B3" stop-opacity="0"/>
</linearGradient>
<linearGradient id="paint15_linear_289_59" x1="147.753" y1="-266.297" x2="147.753" y2="334.513" gradientUnits="userSpaceOnUse">
<stop stop-color="white"/>
<stop offset="1" stop-color="#4930B3" stop-opacity="0"/>
</linearGradient>
<linearGradient id="paint16_linear_289_59" x1="156.15" y1="-263.317" x2="156.15" y2="337.494" gradientUnits="userSpaceOnUse">
<stop stop-color="white"/>
<stop offset="1" stop-color="#4930B3" stop-opacity="0"/>
</linearGradient>
<linearGradient id="paint17_linear_289_59" x1="164.544" y1="-260.336" x2="164.544" y2="340.474" gradientUnits="userSpaceOnUse">
<stop stop-color="white"/>
<stop offset="1" stop-color="#4930B3" stop-opacity="0"/>
</linearGradient>
<linearGradient id="paint18_linear_289_59" x1="172.94" y1="-257.356" x2="172.94" y2="343.454" gradientUnits="userSpaceOnUse">
<stop stop-color="white"/>
<stop offset="1" stop-color="#4930B3" stop-opacity="0"/>
</linearGradient>
<linearGradient id="paint19_linear_289_59" x1="181.335" y1="-254.376" x2="181.335" y2="346.434" gradientUnits="userSpaceOnUse">
<stop stop-color="white"/>
<stop offset="1" stop-color="#4930B3" stop-opacity="0"/>
</linearGradient>
<linearGradient id="paint20_linear_289_59" x1="189.731" y1="-251.396" x2="189.731" y2="349.414" gradientUnits="userSpaceOnUse">
<stop stop-color="white"/>
<stop offset="1" stop-color="#4930B3" stop-opacity="0"/>
</linearGradient>
<linearGradient id="paint21_linear_289_59" x1="198.126" y1="-248.416" x2="198.126" y2="352.395" gradientUnits="userSpaceOnUse">
<stop stop-color="white"/>
<stop offset="1" stop-color="#4930B3" stop-opacity="0"/>
</linearGradient>
<linearGradient id="paint22_linear_289_59" x1="206.522" y1="-245.435" x2="206.522" y2="355.375" gradientUnits="userSpaceOnUse">
<stop stop-color="white"/>
<stop offset="1" stop-color="#4930B3" stop-opacity="0"/>
</linearGradient>
<linearGradient id="paint23_linear_289_59" x1="214.917" y1="-242.455" x2="214.917" y2="358.355" gradientUnits="userSpaceOnUse">
<stop stop-color="white"/>
<stop offset="1" stop-color="#4930B3" stop-opacity="0"/>
</linearGradient>
<linearGradient id="paint24_linear_289_59" x1="223.313" y1="-239.475" x2="223.313" y2="361.335" gradientUnits="userSpaceOnUse">
<stop stop-color="white"/>
<stop offset="1" stop-color="#4930B3" stop-opacity="0"/>
</linearGradient>
<linearGradient id="paint25_linear_289_59" x1="231.707" y1="-236.495" x2="231.707" y2="364.315" gradientUnits="userSpaceOnUse">
<stop stop-color="white"/>
<stop offset="1" stop-color="#4930B3" stop-opacity="0"/>
</linearGradient>
<linearGradient id="paint26_linear_289_59" x1="240.104" y1="-233.515" x2="240.104" y2="367.296" gradientUnits="userSpaceOnUse">
<stop stop-color="white"/>
<stop offset="1" stop-color="#4930B3" stop-opacity="0"/>
</linearGradient>
<linearGradient id="paint27_linear_289_59" x1="248.498" y1="-230.534" x2="248.498" y2="370.276" gradientUnits="userSpaceOnUse">
<stop stop-color="white"/>
<stop offset="1" stop-color="#4930B3" stop-opacity="0"/>
</linearGradient>
<linearGradient id="paint28_linear_289_59" x1="256.895" y1="-227.554" x2="256.895" y2="373.256" gradientUnits="userSpaceOnUse">
<stop stop-color="white"/>
<stop offset="1" stop-color="#4930B3" stop-opacity="0"/>
</linearGradient>
<linearGradient id="paint29_linear_289_59" x1="265.289" y1="-224.574" x2="265.289" y2="376.236" gradientUnits="userSpaceOnUse">
<stop stop-color="white"/>
<stop offset="1" stop-color="#4930B3" stop-opacity="0"/>
</linearGradient>
<linearGradient id="paint30_linear_289_59" x1="273.686" y1="-221.594" x2="273.686" y2="379.217" gradientUnits="userSpaceOnUse">
<stop stop-color="white"/>
<stop offset="1" stop-color="#4930B3" stop-opacity="0"/>
</linearGradient>
<linearGradient id="paint31_linear_289_59" x1="282.081" y1="-218.614" x2="282.081" y2="382.197" gradientUnits="userSpaceOnUse">
<stop stop-color="white"/>
<stop offset="1" stop-color="#4930B3" stop-opacity="0"/>
</linearGradient>
<linearGradient id="paint32_linear_289_59" x1="290.477" y1="-215.633" x2="290.477" y2="385.177" gradientUnits="userSpaceOnUse">
<stop stop-color="white"/>
<stop offset="1" stop-color="#4930B3" stop-opacity="0"/>
</linearGradient>
<linearGradient id="paint33_linear_289_59" x1="298.872" y1="-212.653" x2="298.872" y2="388.157" gradientUnits="userSpaceOnUse">
<stop stop-color="white"/>
<stop offset="1" stop-color="#4930B3" stop-opacity="0"/>
</linearGradient>
<linearGradient id="paint34_linear_289_59" x1="307.268" y1="-209.673" x2="307.268" y2="391.137" gradientUnits="userSpaceOnUse">
<stop stop-color="white"/>
<stop offset="1" stop-color="#4930B3" stop-opacity="0"/>
</linearGradient>
<linearGradient id="paint35_linear_289_59" x1="315.663" y1="-206.693" x2="315.663" y2="394.118" gradientUnits="userSpaceOnUse">
<stop stop-color="white"/>
<stop offset="1" stop-color="#4930B3" stop-opacity="0"/>
</linearGradient>
<linearGradient id="paint36_linear_289_59" x1="324.059" y1="-203.712" x2="324.059" y2="397.098" gradientUnits="userSpaceOnUse">
<stop stop-color="white"/>
<stop offset="1" stop-color="#4930B3" stop-opacity="0"/>
</linearGradient>
<linearGradient id="paint37_linear_289_59" x1="332.454" y1="-200.732" x2="332.454" y2="400.078" gradientUnits="userSpaceOnUse">
<stop stop-color="white"/>
<stop offset="1" stop-color="#4930B3" stop-opacity="0"/>
</linearGradient>
<linearGradient id="paint38_linear_289_59" x1="340.849" y1="-197.752" x2="340.849" y2="403.058" gradientUnits="userSpaceOnUse">
<stop stop-color="white"/>
<stop offset="1" stop-color="#4930B3" stop-opacity="0"/>
</linearGradient>
<linearGradient id="paint39_linear_289_59" x1="349.245" y1="-194.772" x2="349.245" y2="406.038" gradientUnits="userSpaceOnUse">
<stop stop-color="white"/>
<stop offset="1" stop-color="#4930B3" stop-opacity="0"/>
</linearGradient>
<linearGradient id="paint40_linear_289_59" x1="357.64" y1="-191.792" x2="357.64" y2="409.019" gradientUnits="userSpaceOnUse">
<stop stop-color="white"/>
<stop offset="1" stop-color="#4930B3" stop-opacity="0"/>
</linearGradient>
<linearGradient id="paint41_linear_289_59" x1="366.036" y1="-188.811" x2="366.036" y2="411.999" gradientUnits="userSpaceOnUse">
<stop stop-color="white"/>
<stop offset="1" stop-color="#4930B3" stop-opacity="0"/>
</linearGradient>
<linearGradient id="paint42_linear_289_59" x1="374.431" y1="-185.831" x2="374.431" y2="414.979" gradientUnits="userSpaceOnUse">
<stop stop-color="white"/>
<stop offset="1" stop-color="#4930B3" stop-opacity="0"/>
</linearGradient>
<linearGradient id="paint43_linear_289_59" x1="382.827" y1="-182.851" x2="382.827" y2="417.959" gradientUnits="userSpaceOnUse">
<stop stop-color="white"/>
<stop offset="1" stop-color="#4930B3" stop-opacity="0"/>
</linearGradient>
<linearGradient id="paint44_linear_289_59" x1="391.222" y1="-179.871" x2="391.222" y2="420.939" gradientUnits="userSpaceOnUse">
<stop stop-color="white"/>
<stop offset="1" stop-color="#4930B3" stop-opacity="0"/>
</linearGradient>
<linearGradient id="paint45_linear_289_59" x1="399.618" y1="-176.891" x2="399.618" y2="423.92" gradientUnits="userSpaceOnUse">
<stop stop-color="white"/>
<stop offset="1" stop-color="#4930B3" stop-opacity="0"/>
</linearGradient>
<linearGradient id="paint46_linear_289_59" x1="408.014" y1="-173.91" x2="408.014" y2="426.9" gradientUnits="userSpaceOnUse">
<stop stop-color="white"/>
<stop offset="1" stop-color="#4930B3" stop-opacity="0"/>
</linearGradient>
<linearGradient id="paint47_linear_289_59" x1="416.409" y1="-170.93" x2="416.409" y2="429.88" gradientUnits="userSpaceOnUse">
<stop stop-color="white"/>
<stop offset="1" stop-color="#4930B3" stop-opacity="0"/>
</linearGradient>
<linearGradient id="paint48_linear_289_59" x1="424.805" y1="-167.95" x2="424.805" y2="432.86" gradientUnits="userSpaceOnUse">
<stop stop-color="white"/>
<stop offset="1" stop-color="#4930B3" stop-opacity="0"/>
</linearGradient>
<linearGradient id="paint49_linear_289_59" x1="433.2" y1="-164.97" x2="433.2" y2="435.841" gradientUnits="userSpaceOnUse">
<stop stop-color="white"/>
<stop offset="1" stop-color="#4930B3" stop-opacity="0"/>
</linearGradient>
<linearGradient id="paint50_linear_289_59" x1="441.596" y1="-161.99" x2="441.596" y2="438.821" gradientUnits="userSpaceOnUse">
<stop stop-color="white"/>
<stop offset="1" stop-color="#4930B3" stop-opacity="0"/>
</linearGradient>
<linearGradient id="paint51_linear_289_59" x1="449.99" y1="-159.009" x2="449.99" y2="441.801" gradientUnits="userSpaceOnUse">
<stop stop-color="white"/>
<stop offset="1" stop-color="#4930B3" stop-opacity="0"/>
</linearGradient>
<linearGradient id="paint52_linear_289_59" x1="458.387" y1="-156.029" x2="458.387" y2="444.781" gradientUnits="userSpaceOnUse">
<stop stop-color="white"/>
<stop offset="1" stop-color="#4930B3" stop-opacity="0"/>
</linearGradient>
<linearGradient id="paint53_linear_289_59" x1="466.781" y1="-153.049" x2="466.781" y2="447.761" gradientUnits="userSpaceOnUse">
<stop stop-color="white"/>
<stop offset="1" stop-color="#4930B3" stop-opacity="0"/>
</linearGradient>
<linearGradient id="paint54_linear_289_59" x1="475.178" y1="-150.069" x2="475.178" y2="450.742" gradientUnits="userSpaceOnUse">
<stop stop-color="white"/>
<stop offset="1" stop-color="#4930B3" stop-opacity="0"/>
</linearGradient>
<linearGradient id="paint55_linear_289_59" x1="483.572" y1="-147.088" x2="483.572" y2="453.722" gradientUnits="userSpaceOnUse">
<stop stop-color="white"/>
<stop offset="1" stop-color="#4930B3" stop-opacity="0"/>
</linearGradient>
<linearGradient id="paint56_linear_289_59" x1="491.969" y1="-144.108" x2="491.969" y2="456.702" gradientUnits="userSpaceOnUse">
<stop stop-color="white"/>
<stop offset="1" stop-color="#4930B3" stop-opacity="0"/>
</linearGradient>
<linearGradient id="paint57_linear_289_59" x1="500.363" y1="-141.128" x2="500.363" y2="459.682" gradientUnits="userSpaceOnUse">
<stop stop-color="white"/>
<stop offset="1" stop-color="#4930B3" stop-opacity="0"/>
</linearGradient>
<linearGradient id="paint58_linear_289_59" x1="508.76" y1="-138.148" x2="508.76" y2="462.662" gradientUnits="userSpaceOnUse">
<stop stop-color="white"/>
<stop offset="1" stop-color="#4930B3" stop-opacity="0"/>
</linearGradient>
<linearGradient id="paint59_linear_289_59" x1="517.156" y1="-135.168" x2="517.156" y2="465.643" gradientUnits="userSpaceOnUse">
<stop stop-color="white"/>
<stop offset="1" stop-color="#4930B3" stop-opacity="0"/>
</linearGradient>
<linearGradient id="paint60_linear_289_59" x1="525.551" y1="-132.187" x2="525.551" y2="468.623" gradientUnits="userSpaceOnUse">
<stop stop-color="white"/>
<stop offset="1" stop-color="#4930B3" stop-opacity="0"/>
</linearGradient>
<linearGradient id="paint61_linear_289_59" x1="533.947" y1="-129.207" x2="533.947" y2="471.603" gradientUnits="userSpaceOnUse">
<stop stop-color="white"/>
<stop offset="1" stop-color="#4930B3" stop-opacity="0"/>
</linearGradient>
<linearGradient id="paint62_linear_289_59" x1="542.342" y1="-126.227" x2="542.342" y2="474.583" gradientUnits="userSpaceOnUse">
<stop stop-color="white"/>
<stop offset="1" stop-color="#4930B3" stop-opacity="0"/>
</linearGradient>
<linearGradient id="paint63_linear_289_59" x1="550.738" y1="-123.247" x2="550.738" y2="477.563" gradientUnits="userSpaceOnUse">
<stop stop-color="white"/>
<stop offset="1" stop-color="#4930B3" stop-opacity="0"/>
</linearGradient>
<linearGradient id="paint64_linear_289_59" x1="559.133" y1="-120.267" x2="559.133" y2="480.544" gradientUnits="userSpaceOnUse">
<stop stop-color="white"/>
<stop offset="1" stop-color="#4930B3" stop-opacity="0"/>
</linearGradient>
<linearGradient id="paint65_linear_289_59" x1="567.529" y1="-117.286" x2="567.529" y2="483.524" gradientUnits="userSpaceOnUse">
<stop stop-color="white"/>
<stop offset="1" stop-color="#4930B3" stop-opacity="0"/>
</linearGradient>
<linearGradient id="paint66_linear_289_59" x1="575.923" y1="-114.306" x2="575.923" y2="486.504" gradientUnits="userSpaceOnUse">
<stop stop-color="white"/>
<stop offset="1" stop-color="#4930B3" stop-opacity="0"/>
</linearGradient>
<linearGradient id="paint67_linear_289_59" x1="584.32" y1="-111.326" x2="584.32" y2="489.484" gradientUnits="userSpaceOnUse">
<stop stop-color="white"/>
<stop offset="1" stop-color="#4930B3" stop-opacity="0"/>
</linearGradient>
<linearGradient id="paint68_linear_289_59" x1="592.714" y1="-108.346" x2="592.714" y2="492.465" gradientUnits="userSpaceOnUse">
<stop stop-color="white"/>
<stop offset="1" stop-color="#4930B3" stop-opacity="0"/>
</linearGradient>
<linearGradient id="paint69_linear_289_59" x1="601.111" y1="-105.366" x2="601.111" y2="495.445" gradientUnits="userSpaceOnUse">
<stop stop-color="white"/>
<stop offset="1" stop-color="#4930B3" stop-opacity="0"/>
</linearGradient>
<linearGradient id="paint70_linear_289_59" x1="609.505" y1="-102.385" x2="609.505" y2="498.425" gradientUnits="userSpaceOnUse">
<stop stop-color="white"/>
<stop offset="1" stop-color="#4930B3" stop-opacity="0"/>
</linearGradient>
<linearGradient id="paint71_linear_289_59" x1="617.902" y1="-99.405" x2="617.902" y2="501.405" gradientUnits="userSpaceOnUse">
<stop stop-color="white"/>
<stop offset="1" stop-color="#4930B3" stop-opacity="0"/>
</linearGradient>
<linearGradient id="paint72_linear_289_59" x1="626.296" y1="-96.4249" x2="626.296" y2="504.385" gradientUnits="userSpaceOnUse">
<stop stop-color="white"/>
<stop offset="1" stop-color="#4930B3" stop-opacity="0"/>
</linearGradient>
<linearGradient id="paint73_linear_289_59" x1="634.693" y1="-93.4447" x2="634.693" y2="507.366" gradientUnits="userSpaceOnUse">
<stop stop-color="white"/>
<stop offset="1" stop-color="#4930B3" stop-opacity="0"/>
</linearGradient>
<linearGradient id="paint74_linear_289_59" x1="643.087" y1="-90.4644" x2="643.087" y2="510.346" gradientUnits="userSpaceOnUse">
<stop stop-color="white"/>
<stop offset="1" stop-color="#4930B3" stop-opacity="0"/>
</linearGradient>
<linearGradient id="paint75_linear_289_59" x1="651.483" y1="-87.4842" x2="651.483" y2="513.326" gradientUnits="userSpaceOnUse">
<stop stop-color="white"/>
<stop offset="1" stop-color="#4930B3" stop-opacity="0"/>
</linearGradient>
<linearGradient id="paint76_linear_289_59" x1="659.879" y1="-84.504" x2="659.879" y2="516.306" gradientUnits="userSpaceOnUse">
<stop stop-color="white"/>
<stop offset="1" stop-color="#4930B3" stop-opacity="0"/>
</linearGradient>
<linearGradient id="paint77_linear_289_59" x1="668.274" y1="-81.5238" x2="668.274" y2="519.286" gradientUnits="userSpaceOnUse">
<stop stop-color="white"/>
<stop offset="1" stop-color="#4930B3" stop-opacity="0"/>
</linearGradient>
<linearGradient id="paint78_linear_289_59" x1="676.67" y1="-78.5436" x2="676.67" y2="522.267" gradientUnits="userSpaceOnUse">
<stop stop-color="white"/>
<stop offset="1" stop-color="#4930B3" stop-opacity="0"/>
</linearGradient>
<linearGradient id="paint79_linear_289_59" x1="685.065" y1="-75.5635" x2="685.065" y2="525.247" gradientUnits="userSpaceOnUse">
<stop stop-color="white"/>
<stop offset="1" stop-color="#4930B3" stop-opacity="0"/>
</linearGradient>
<linearGradient id="paint80_linear_289_59" x1="693.461" y1="-72.5832" x2="693.461" y2="528.227" gradientUnits="userSpaceOnUse">
<stop stop-color="white"/>
<stop offset="1" stop-color="#4930B3" stop-opacity="0"/>
</linearGradient>
<linearGradient id="paint81_linear_289_59" x1="701.856" y1="-69.603" x2="701.856" y2="531.207" gradientUnits="userSpaceOnUse">
<stop stop-color="white"/>
<stop offset="1" stop-color="#4930B3" stop-opacity="0"/>
</linearGradient>
<linearGradient id="paint82_linear_289_59" x1="710.252" y1="-66.6229" x2="710.252" y2="534.187" gradientUnits="userSpaceOnUse">
<stop stop-color="white"/>
<stop offset="1" stop-color="#4930B3" stop-opacity="0"/>
</linearGradient>
<linearGradient id="paint83_linear_289_59" x1="718.647" y1="-63.6426" x2="718.647" y2="537.168" gradientUnits="userSpaceOnUse">
<stop stop-color="white"/>
<stop offset="1" stop-color="#4930B3" stop-opacity="0"/>
</linearGradient>
<linearGradient id="paint84_linear_289_59" x1="727.043" y1="-60.6625" x2="727.043" y2="540.148" gradientUnits="userSpaceOnUse">
<stop stop-color="white"/>
<stop offset="1" stop-color="#4930B3" stop-opacity="0"/>
</linearGradient>
<linearGradient id="paint85_linear_289_59" x1="735.438" y1="-57.6822" x2="735.438" y2="543.128" gradientUnits="userSpaceOnUse">
<stop stop-color="white"/>
<stop offset="1" stop-color="#4930B3" stop-opacity="0"/>
</linearGradient>
<linearGradient id="paint86_linear_289_59" x1="743.834" y1="-54.702" x2="743.834" y2="546.108" gradientUnits="userSpaceOnUse">
<stop stop-color="white"/>
<stop offset="1" stop-color="#4930B3" stop-opacity="0"/>
</linearGradient>
<linearGradient id="paint87_linear_289_59" x1="752.23" y1="-51.7217" x2="752.23" y2="549.089" gradientUnits="userSpaceOnUse">
<stop stop-color="white"/>
<stop offset="1" stop-color="#4930B3" stop-opacity="0"/>
</linearGradient>
<linearGradient id="paint88_linear_289_59" x1="760.624" y1="-48.7415" x2="760.624" y2="552.069" gradientUnits="userSpaceOnUse">
<stop stop-color="white"/>
<stop offset="1" stop-color="#4930B3" stop-opacity="0"/>
</linearGradient>
<linearGradient id="paint89_linear_289_59" x1="769.021" y1="-45.7614" x2="769.021" y2="555.049" gradientUnits="userSpaceOnUse">
<stop stop-color="white"/>
<stop offset="1" stop-color="#4930B3" stop-opacity="0"/>
</linearGradient>
<linearGradient id="paint90_linear_289_59" x1="777.415" y1="-42.7812" x2="777.415" y2="558.029" gradientUnits="userSpaceOnUse">
<stop stop-color="white"/>
<stop offset="1" stop-color="#4930B3" stop-opacity="0"/>
</linearGradient>
<linearGradient id="paint91_linear_289_59" x1="785.812" y1="-39.8009" x2="785.812" y2="561.009" gradientUnits="userSpaceOnUse">
<stop stop-color="white"/>
<stop offset="1" stop-color="#4930B3" stop-opacity="0"/>
</linearGradient>
<linearGradient id="paint92_linear_289_59" x1="794.206" y1="-36.8207" x2="794.206" y2="563.99" gradientUnits="userSpaceOnUse">
<stop stop-color="white"/>
<stop offset="1" stop-color="#4930B3" stop-opacity="0"/>
</linearGradient>
<linearGradient id="paint93_linear_289_59" x1="802.603" y1="-33.8405" x2="802.603" y2="566.97" gradientUnits="userSpaceOnUse">
<stop stop-color="white"/>
<stop offset="1" stop-color="#4930B3" stop-opacity="0"/>
</linearGradient>
<linearGradient id="paint94_linear_289_59" x1="810.997" y1="-30.8603" x2="810.997" y2="569.95" gradientUnits="userSpaceOnUse">
<stop stop-color="white"/>
<stop offset="1" stop-color="#4930B3" stop-opacity="0"/>
</linearGradient>
<linearGradient id="paint95_linear_289_59" x1="819.394" y1="-27.8801" x2="819.394" y2="572.93" gradientUnits="userSpaceOnUse">
<stop stop-color="white"/>
<stop offset="1" stop-color="#4930B3" stop-opacity="0"/>
</linearGradient>
<linearGradient id="paint96_linear_289_59" x1="827.788" y1="-24.8998" x2="827.788" y2="575.91" gradientUnits="userSpaceOnUse">
<stop stop-color="white"/>
<stop offset="1" stop-color="#4930B3" stop-opacity="0"/>
</linearGradient>
<linearGradient id="paint97_linear_289_59" x1="836.185" y1="-21.9196" x2="836.185" y2="578.891" gradientUnits="userSpaceOnUse">
<stop stop-color="white"/>
<stop offset="1" stop-color="#4930B3" stop-opacity="0"/>
</linearGradient>
<linearGradient id="paint98_linear_289_59" x1="844.579" y1="-18.9395" x2="844.579" y2="581.871" gradientUnits="userSpaceOnUse">
<stop stop-color="white"/>
<stop offset="1" stop-color="#4930B3" stop-opacity="0"/>
</linearGradient>
<linearGradient id="paint99_linear_289_59" x1="852.976" y1="-15.9592" x2="852.976" y2="584.851" gradientUnits="userSpaceOnUse">
<stop stop-color="white"/>
<stop offset="1" stop-color="#4930B3" stop-opacity="0"/>
</linearGradient>
<linearGradient id="paint100_linear_289_59" x1="861.37" y1="-12.979" x2="861.37" y2="587.831" gradientUnits="userSpaceOnUse">
<stop stop-color="white"/>
<stop offset="1" stop-color="#4930B3" stop-opacity="0"/>
</linearGradient>
<linearGradient id="paint101_linear_289_59" x1="869.766" y1="-9.99878" x2="869.766" y2="590.812" gradientUnits="userSpaceOnUse">
<stop stop-color="white"/>
<stop offset="1" stop-color="#4930B3" stop-opacity="0"/>
</linearGradient>
<linearGradient id="paint102_linear_289_59" x1="878.161" y1="-7.01855" x2="878.161" y2="593.792" gradientUnits="userSpaceOnUse">
<stop stop-color="white"/>
<stop offset="1" stop-color="#4930B3" stop-opacity="0"/>
</linearGradient>
<linearGradient id="paint103_linear_289_59" x1="886.557" y1="-4.03848" x2="886.557" y2="596.772" gradientUnits="userSpaceOnUse">
<stop stop-color="white"/>
<stop offset="1" stop-color="#4930B3" stop-opacity="0"/>
</linearGradient>
<linearGradient id="paint104_linear_289_59" x1="894.953" y1="-1.05814" x2="894.953" y2="599.752" gradientUnits="userSpaceOnUse">
<stop stop-color="white"/>
<stop offset="1" stop-color="#4930B3" stop-opacity="0"/>
</linearGradient>
<linearGradient id="paint105_linear_289_59" x1="903.348" y1="1.92194" x2="903.348" y2="602.732" gradientUnits="userSpaceOnUse">
<stop stop-color="white"/>
<stop offset="1" stop-color="#4930B3" stop-opacity="0"/>
</linearGradient>
<linearGradient id="paint106_linear_289_59" x1="911.744" y1="4.90222" x2="911.744" y2="605.713" gradientUnits="userSpaceOnUse">
<stop stop-color="white"/>
<stop offset="1" stop-color="#4930B3" stop-opacity="0"/>
</linearGradient>
<linearGradient id="paint107_linear_289_59" x1="920.138" y1="7.88251" x2="920.138" y2="608.693" gradientUnits="userSpaceOnUse">
<stop stop-color="white"/>
<stop offset="1" stop-color="#4930B3" stop-opacity="0"/>
</linearGradient>
<linearGradient id="paint108_linear_289_59" x1="928.535" y1="10.8626" x2="928.535" y2="611.673" gradientUnits="userSpaceOnUse">
<stop stop-color="white"/>
<stop offset="1" stop-color="#4930B3" stop-opacity="0"/>
</linearGradient>
<linearGradient id="paint109_linear_289_59" x1="936.93" y1="13.8429" x2="936.93" y2="614.653" gradientUnits="userSpaceOnUse">
<stop stop-color="white"/>
<stop offset="1" stop-color="#4930B3" stop-opacity="0"/>
</linearGradient>
<linearGradient id="paint110_linear_289_59" x1="945.326" y1="16.8231" x2="945.326" y2="617.633" gradientUnits="userSpaceOnUse">
<stop stop-color="white"/>
<stop offset="1" stop-color="#4930B3" stop-opacity="0"/>
</linearGradient>
<linearGradient id="paint111_linear_289_59" x1="953.721" y1="19.8033" x2="953.721" y2="620.614" gradientUnits="userSpaceOnUse">
<stop stop-color="white"/>
<stop offset="1" stop-color="#4930B3" stop-opacity="0"/>
</linearGradient>
<linearGradient id="paint112_linear_289_59" x1="962.118" y1="22.7835" x2="962.118" y2="623.594" gradientUnits="userSpaceOnUse">
<stop stop-color="white"/>
<stop offset="1" stop-color="#4930B3" stop-opacity="0"/>
</linearGradient>
<linearGradient id="paint113_linear_289_59" x1="970.512" y1="25.7637" x2="970.512" y2="626.574" gradientUnits="userSpaceOnUse">
<stop stop-color="white"/>
<stop offset="1" stop-color="#4930B3" stop-opacity="0"/>
</linearGradient>
<linearGradient id="paint114_linear_289_59" x1="978.907" y1="28.7439" x2="978.907" y2="629.554" gradientUnits="userSpaceOnUse">
<stop stop-color="white"/>
<stop offset="1" stop-color="#4930B3" stop-opacity="0"/>
</linearGradient>
<linearGradient id="paint115_linear_289_59" x1="987.303" y1="31.7241" x2="987.303" y2="632.534" gradientUnits="userSpaceOnUse">
<stop stop-color="white"/>
<stop offset="1" stop-color="#4930B3" stop-opacity="0"/>
</linearGradient>
<linearGradient id="paint116_linear_289_59" x1="995.698" y1="34.7044" x2="995.698" y2="635.515" gradientUnits="userSpaceOnUse">
<stop stop-color="white"/>
<stop offset="1" stop-color="#4930B3" stop-opacity="0"/>
</linearGradient>
<linearGradient id="paint117_linear_289_59" x1="1004.09" y1="37.6846" x2="1004.09" y2="638.495" gradientUnits="userSpaceOnUse">
<stop stop-color="white"/>
<stop offset="1" stop-color="#4930B3" stop-opacity="0"/>
</linearGradient>
<linearGradient id="paint118_linear_289_59" x1="1012.49" y1="40.6647" x2="1012.49" y2="641.475" gradientUnits="userSpaceOnUse">
<stop stop-color="white"/>
<stop offset="1" stop-color="#4930B3" stop-opacity="0"/>
</linearGradient>
<linearGradient id="paint119_linear_289_59" x1="1020.88" y1="43.645" x2="1020.88" y2="644.455" gradientUnits="userSpaceOnUse">
<stop stop-color="white"/>
<stop offset="1" stop-color="#4930B3" stop-opacity="0"/>
</linearGradient>
<linearGradient id="paint120_linear_289_59" x1="1029.28" y1="46.6252" x2="1029.28" y2="647.436" gradientUnits="userSpaceOnUse">
<stop stop-color="white"/>
<stop offset="1" stop-color="#4930B3" stop-opacity="0"/>
</linearGradient>
<linearGradient id="paint121_linear_289_59" x1="1037.68" y1="49.6054" x2="1037.68" y2="650.416" gradientUnits="userSpaceOnUse">
<stop stop-color="white"/>
<stop offset="1" stop-color="#4930B3" stop-opacity="0"/>
</linearGradient>
<linearGradient id="paint122_linear_289_59" x1="1046.07" y1="52.5855" x2="1046.07" y2="653.396" gradientUnits="userSpaceOnUse">
<stop stop-color="white"/>
<stop offset="1" stop-color="#4930B3" stop-opacity="0"/>
</linearGradient>
<linearGradient id="paint123_linear_289_59" x1="1054.47" y1="55.5659" x2="1054.47" y2="656.376" gradientUnits="userSpaceOnUse">
<stop stop-color="white"/>
<stop offset="1" stop-color="#4930B3" stop-opacity="0"/>
</linearGradient>
<linearGradient id="paint124_linear_289_59" x1="1062.86" y1="58.546" x2="1062.86" y2="659.356" gradientUnits="userSpaceOnUse">
<stop stop-color="white"/>
<stop offset="1" stop-color="#4930B3" stop-opacity="0"/>
</linearGradient>
<linearGradient id="paint125_linear_289_59" x1="1071.26" y1="61.5262" x2="1071.26" y2="662.336" gradientUnits="userSpaceOnUse">
<stop stop-color="white"/>
<stop offset="1" stop-color="#4930B3" stop-opacity="0"/>
</linearGradient>
<linearGradient id="paint126_linear_289_59" x1="1079.65" y1="64.5064" x2="1079.65" y2="665.317" gradientUnits="userSpaceOnUse">
<stop stop-color="white"/>
<stop offset="1" stop-color="#4930B3" stop-opacity="0"/>
</linearGradient>
<clipPath id="clip0_289_59">
<rect width="960" height="540" fill="white"/>
</clipPath>
</defs>
</svg>
